<svg width="18" height="18" viewBox="0 0 18 18" fill="none" xmlns="http://www.w3.org/2000/svg">
<path d="M14.625 3.75001C13.5912 3.75001 12.75 4.5912 12.75 5.625C12.75 6.6588 13.5912 7.49999 14.625 7.49999H14.8593C14.3739 9.49271 12.6161 11.0724 10.369 11.6992C10.2738 11.4545 10.1268 11.2366 9.94496 11.0537C11.5409 10.676 12.886 9.7708 13.6428 8.50704C13.6971 8.41693 13.7106 8.3082 13.6809 8.20747C13.6509 8.10675 13.5802 8.02325 13.4857 7.97748C12.5691 7.53071 12 6.62945 12 5.62493C12 4.8156 12.3765 4.06121 13.0331 3.55475C13.1715 3.44781 13.2177 3.25923 13.1444 3.10064C12.828 2.41545 12.497 1.67572 12.2175 0.907031L12.1227 0.645926C11.9817 0.259629 11.6107 0 11.1998 0C10.8706 0 10.5652 0.163687 10.3828 0.437273L9.58996 1.62633C8.69565 1.4586 7.8043 1.4586 6.91003 1.62633L6.11719 0.437273C5.93483 0.163687 5.62939 0 5.30016 0C4.88925 0 4.51828 0.259629 4.3773 0.646348L4.28245 0.907102C3.92319 1.89439 3.46725 2.86928 3.02636 3.81189L2.62536 4.67504C2.37635 5.21887 2.25 5.7909 2.25 6.37499C2.25 8.77275 4.39376 10.7672 7.2045 11.1709C7.03976 11.3673 6.90989 11.5943 6.83511 11.8465C5.43551 11.5928 4.14394 10.9909 3.17612 10.0693C3.04024 9.94039 2.83004 9.93087 2.6832 10.0481L0.900844 11.4741C0.3285 11.9322 0 12.6156 0 13.3488C0 14.5635 0.907102 15.5706 2.09728 15.7284C2.36243 17.0255 3.52698 18 4.87941 18C5.44191 18 5.98609 17.8352 6.45339 17.5232L7.459 16.853C8.15186 16.3908 9.09816 16.3908 9.79102 16.853L10.7461 17.4898C11.2471 17.8235 11.8297 18 12.431 18C13.4195 18 14.3178 17.54 14.8956 16.7384C15.4731 15.9368 15.6251 14.9392 15.3128 14.0021L15.1381 13.478C15.0465 13.203 15 12.9174 15 12.6284C15 11.6481 15.4684 10.7113 16.2525 10.1228L16.6502 9.82505C17.4954 9.19079 18 8.18153 18 7.12501C18 5.26391 16.4861 3.75001 14.625 3.75001ZM9.03955 4.70728C9.08863 4.60912 9.57751 3.75001 11.625 3.75001C11.8323 3.75001 12 3.91774 12 4.12502C12 4.3323 11.8323 4.50004 11.625 4.50004C10.0631 4.50004 9.70643 5.05083 9.70312 5.05631C9.63134 5.17314 9.50354 5.24088 9.37354 5.24088C9.31349 5.24088 9.25267 5.22622 9.19702 5.19546C9.02162 5.09766 8.94983 4.88672 9.03955 4.70728ZM4.5 4.12499C4.5 3.91771 4.66773 3.74998 4.87501 3.74998C6.92251 3.74998 7.41139 4.60913 7.46047 4.70725C7.55311 4.89255 7.47805 5.11777 7.29274 5.21044C7.23892 5.23716 7.18179 5.24999 7.1254 5.24999C6.99209 5.24999 6.86355 5.17894 6.79616 5.05515C6.77563 5.02478 6.39953 4.5 4.87501 4.5C4.66773 4.5 4.5 4.33227 4.5 4.12499ZM9 13.4309V13.125C9 12.9177 8.83227 12.75 8.62499 12.75C8.41771 12.75 8.24998 12.9177 8.24998 13.125V13.4309C7.81443 13.2756 7.49999 12.8632 7.49999 12.375C7.49999 11.7546 8.00462 11.25 8.62499 11.25C9.24536 11.25 9.74999 11.7546 9.74999 12.375C9.74999 12.8632 9.43555 13.2756 9 13.4309ZM9 8.25001C8.71084 8.25001 8.44949 8.1373 8.25001 7.95741C8.05054 8.1373 7.78918 8.25001 7.50002 8.25001C6.87966 8.25001 6.37502 7.74538 6.37502 7.12501C6.37502 6.91773 6.54275 6.75 6.75004 6.75C6.95732 6.75 7.12505 6.91773 7.12505 7.12501C7.12505 7.33191 7.29313 7.50002 7.50006 7.50002C7.70695 7.50002 7.87507 7.33194 7.87507 7.12501C7.87507 6.91773 8.0428 6.75 8.25008 6.75C8.45736 6.75 8.62509 6.91773 8.62509 7.12501C8.62509 7.33191 8.79318 7.50002 9.0001 7.50002C9.20704 7.50002 9.37512 7.33194 9.37512 7.12501C9.37512 6.91773 9.54285 6.75 9.75013 6.75C9.95741 6.75 10.1251 6.91773 10.1251 7.12501C10.125 7.74538 9.62037 8.25001 9 8.25001Z" fill="#55717C"/>
</svg>
