<svg width="20" height="16" viewBox="0 0 20 16" fill="none" xmlns="http://www.w3.org/2000/svg">
<path d="M17.7646 5.90423L16.4821 1.62946C16.1897 0.654575 15.3097 0 14.2924 0H5.70756C4.69026 0 3.81024 0.654576 3.51783 1.62946L2.23539 5.90423C1.42561 6.25614 0.857117 7.06201 0.857117 8V12.5714C0.857117 13.2026 1.36884 13.7143 1.99997 13.7143H2.00004L1.99997 14.8571C1.99997 15.4883 2.51162 16 3.14283 16H4.28576C4.9169 16 5.42861 15.4883 5.42861 14.8571L5.42813 13.7143H14.5714L14.5713 14.8571C14.5713 15.4883 15.083 16 15.7142 16H16.8571C17.4883 16 18 15.4883 18 14.8571V13.7144L17.9996 13.7143H18C18.6311 13.7143 19.1428 13.2026 19.1428 12.5714V8C19.1428 7.06201 18.5743 6.25613 17.7646 5.90423L17.7646 5.90423ZM5.70753 2.28571H14.2924L15.3209 5.71429H4.67893L5.70753 2.28571H5.70753ZM5.42851 10.8571C4.7973 10.8571 4.28565 10.3454 4.28565 9.71429C4.28565 9.08308 4.7973 8.57143 5.42851 8.57143C6.05972 8.57143 6.57137 9.08308 6.57137 9.71429C6.57137 10.3454 6.05972 10.8571 5.42851 10.8571ZM14.5714 10.8571C13.9402 10.8571 13.4285 10.3454 13.4285 9.71429C13.4285 9.08308 13.9402 8.57143 14.5714 8.57143C15.2026 8.57143 15.7142 9.08308 15.7142 9.71429C15.7142 10.3454 15.2026 10.8571 14.5714 10.8571Z" fill="#55717C"/>
</svg>
