<svg width="20" height="14" viewBox="0 0 20 14" fill="none" xmlns="http://www.w3.org/2000/svg">
<path d="M4.92313 0C3.57985 0 2.32677 0.748716 1.3951 2.10822C0.495436 3.4209 0 5.15817 0 7.00005C0 8.84188 0.495482 10.5793 1.39515 11.8919C2.32677 13.2514 3.57985 14.0001 4.92313 14.0001C6.2666 14.0001 7.5195 13.2514 8.4513 11.8919C9.35092 10.5793 9.84631 8.84188 9.84631 7.00005C9.84631 5.15817 9.35092 3.4209 8.4513 2.10822C7.5195 0.748716 6.2666 0 4.92313 0ZM7.71934 11.336C6.96174 12.4412 5.9688 13.0499 4.92313 13.0499C3.87746 13.0499 2.88457 12.4412 2.12697 11.336C1.33741 10.1837 0.902552 8.644 0.902552 7.0001C0.902552 5.3562 1.33737 3.81633 2.12697 2.66427C2.88457 1.55898 3.87746 0.950269 4.92313 0.950269C5.9688 0.950269 6.96174 1.55898 7.71934 2.66427C8.50895 3.81633 8.94376 5.3562 8.94376 7.0001C8.94376 8.644 8.5089 10.1837 7.71934 11.336Z" fill="#55717C"/>
<path d="M4.92313 4.62454C3.67697 4.62454 2.66675 5.68802 2.66675 7.00012C2.66675 7.73783 2.98628 8.39709 3.48749 8.83283C3.47809 8.77615 3.47997 8.71947 3.49556 8.66487C3.57517 8.38217 3.9761 8.2582 4.39124 8.38791C4.80624 8.51744 5.07808 8.85175 4.99829 9.1345C4.96976 9.23574 4.89965 9.31617 4.80289 9.37227C4.84265 9.37444 4.88277 9.37565 4.92308 9.37565C6.16942 9.37565 7.17965 8.31207 7.17965 7.00021C7.17969 5.68811 6.16947 4.62454 4.92313 4.62454ZM6.27407 5.96314C6.19428 6.24585 5.79326 6.36987 5.3783 6.24025C4.96321 6.11053 4.69141 5.77627 4.77116 5.49356C4.85086 5.21081 5.25188 5.08674 5.66692 5.21641C6.08193 5.34617 6.35372 5.68039 6.27407 5.96314Z" fill="#55717C"/>
<path d="M18.6049 2.10822C17.6732 0.748716 16.4201 0 15.0769 0C13.7334 0 12.4805 0.748716 11.5487 2.10822C10.6491 3.4209 10.1537 5.15817 10.1537 7.00005C10.1537 8.84188 10.6491 10.5793 11.5487 11.8919C12.4805 13.2514 13.7334 14.0001 15.0769 14.0001C16.4201 14.0001 17.6731 13.2514 18.6049 11.8919C19.5045 10.5793 20 8.84188 20 7.00005C20 5.15817 19.5045 3.4209 18.6049 2.10822ZM17.8731 11.336C17.1155 12.4412 16.1224 13.0499 15.0769 13.0499C14.0312 13.0499 13.0382 12.4412 12.2806 11.336C11.491 10.1837 11.0562 8.64395 11.0562 7.0001C11.0562 5.35625 11.491 3.81633 12.2806 2.66427C13.0382 1.55898 14.0312 0.950269 15.0769 0.950269C16.1224 0.950269 17.1154 1.55898 17.8731 2.66427C18.6626 3.81633 19.0974 5.3562 19.0974 7.0001C19.0974 8.644 18.6626 10.1837 17.8731 11.336Z" fill="#55717C"/>
<path d="M15.0768 4.62454C13.8304 4.62454 12.8203 5.68802 12.8203 7.00012C12.8203 7.73783 13.1397 8.39709 13.641 8.83283C13.6317 8.77615 13.6336 8.71947 13.6491 8.66487C13.7288 8.38217 14.1297 8.2582 14.5447 8.38791C14.9598 8.51744 15.2316 8.85175 15.1519 9.1345C15.1234 9.23574 15.0532 9.31617 14.9564 9.37227C14.9962 9.37444 15.0364 9.37565 15.0767 9.37565C16.3228 9.37565 17.3331 8.31207 17.3331 7.00021C17.3332 5.68811 16.3229 4.62454 15.0768 4.62454ZM16.4277 5.96314C16.3479 6.24585 15.9469 6.36987 15.5318 6.24025C15.1168 6.11053 14.8449 5.77627 14.9248 5.49356C15.0045 5.21081 15.4055 5.08674 15.8204 5.21641C16.2355 5.34617 16.5073 5.68039 16.4277 5.96314Z" fill="#55717C"/>
</svg>
