<svg width="19" height="18" viewBox="0 0 19 18" fill="none" xmlns="http://www.w3.org/2000/svg">
<path d="M18.3356 6.43221C18.2186 6.07251 17.8996 5.81784 17.5236 5.78383L12.3957 5.31827L10.369 0.573571C10.2194 0.224983 9.87896 0 9.50001 0C9.12107 0 8.78048 0.224983 8.6318 0.573571L6.60519 5.31827L1.47639 5.78383C1.10042 5.81852 0.78206 6.07319 0.664418 6.43221C0.547454 6.79191 0.655473 7.18645 0.939819 7.43582L4.81617 10.8348L3.67323 15.8688C3.5896 16.2389 3.73327 16.6216 4.04038 16.8436C4.20546 16.9636 4.39941 17.0235 4.59403 17.0235C4.76128 17.0235 4.92866 16.979 5.07815 16.8896L9.50001 14.2456L13.9211 16.8896C14.2454 17.0834 14.6532 17.0656 14.9596 16.8436C15.2668 16.6216 15.4104 16.2389 15.3268 15.8688L14.1839 10.8348L18.0602 7.43582C18.3444 7.18645 18.4526 6.79273 18.3356 6.43221Z" fill="#55717C"/>
</svg>
