<svg width="18" height="18" viewBox="0 0 18 18" fill="none" xmlns="http://www.w3.org/2000/svg">
<path d="M2.84619 12.581C3.05072 12.4113 3.1634 12.3178 3.43677 12.3178C3.71008 12.3178 3.82275 12.4112 4.02726 12.581C4.28471 12.7947 4.63736 13.0873 5.29127 13.0873C5.94524 13.0873 6.29786 12.7946 6.55531 12.581C6.75981 12.4112 6.87249 12.3178 7.14583 12.3178C7.4191 12.3178 7.53177 12.4112 7.73628 12.581C7.99373 12.7947 8.34634 13.0873 9.00029 13.0873C9.65423 13.0873 10.0068 12.7947 10.2643 12.581C10.4688 12.4112 10.5814 12.3178 10.8547 12.3178C11.128 12.3178 11.2407 12.4113 11.4452 12.581C11.7026 12.7947 12.0553 13.0873 12.7092 13.0873C13.3632 13.0873 13.7158 12.7946 13.9732 12.581C14.1777 12.4112 14.2904 12.3178 14.5637 12.3178C14.837 12.3178 14.9497 12.4113 15.1542 12.581C15.3964 12.782 15.723 13.0527 16.3053 13.0841V14.1088H1.69471V13.0841C2.27722 13.0528 2.60392 12.782 2.84619 12.581Z" fill="#55717C"/>
<path d="M13.3999 6.84756C13.189 7.02264 13.0727 7.11911 12.7894 7.11911C12.5061 7.11911 12.3899 7.02264 12.1789 6.84756C11.9172 6.63036 11.5588 6.33294 10.8948 6.33294C10.2308 6.33294 9.87246 6.6304 9.61075 6.84759C9.39978 7.02267 9.28355 7.11914 9.00026 7.11914C8.71694 7.11914 8.60071 7.02271 8.38974 6.84759C8.12807 6.6304 7.76966 6.33294 7.10569 6.33294C6.44173 6.33294 6.08328 6.63036 5.82161 6.84756C5.6106 7.02264 5.49438 7.11911 5.21105 7.11911C4.92773 7.11911 4.8115 7.02264 4.60053 6.84756C4.3487 6.63855 4.00649 6.35604 3.38947 6.33498V6.0229C3.38947 5.21107 3.94276 4.52637 4.69197 4.32524V3.09428C4.35451 2.77165 3.97967 2.29338 3.97967 1.75908C3.9796 0.78757 5.21928 0 5.21928 0C5.21928 0 6.45896 0.78757 6.45896 1.75911C6.45896 2.29342 6.08409 2.77172 5.74662 3.09435V4.26509H8.47264V3.09431C8.13517 2.77168 7.7603 2.29342 7.7603 1.75911C7.7603 0.78757 8.99998 0 8.99998 0C8.99998 0 10.2397 0.78757 10.2397 1.75911C10.2397 2.29342 9.86479 2.77172 9.52733 3.09435V4.26512H12.2533V3.09431C11.9159 2.77168 11.541 2.29342 11.541 1.75911C11.541 0.78757 12.7807 0 12.7807 0C12.7807 0 14.0204 0.78757 14.0204 1.75911C14.0204 2.29342 13.6455 2.77172 13.308 3.09435V4.32524C14.0572 4.52637 14.6105 5.21111 14.6105 6.02293V6.33502C13.9938 6.35618 13.6517 6.63862 13.3999 6.84756Z" fill="#55717C"/>
<path d="M15.8277 11.7695C15.5702 11.5558 15.2176 11.2632 14.5636 11.2632C13.9097 11.2632 13.5571 11.5559 13.2996 11.7695C13.0951 11.9393 12.9825 12.0327 12.7092 12.0327C12.4359 12.0327 12.3232 11.9392 12.1187 11.7695C11.8612 11.5558 11.5086 11.2632 10.8547 11.2632C10.2007 11.2632 9.84813 11.5559 9.59065 11.7696C9.38614 11.9393 9.2735 12.0328 9.00023 12.0328C8.72693 12.0328 8.61425 11.9393 8.40975 11.7696C8.1523 11.5559 7.79968 11.2633 7.14578 11.2633C6.4918 11.2633 6.13918 11.5559 5.88173 11.7696C5.67723 11.9393 5.56455 12.0328 5.29121 12.0328C5.01787 12.0328 4.90523 11.9393 4.70073 11.7696C4.44328 11.5559 4.09063 11.2633 3.43672 11.2633C2.78275 11.2633 2.43009 11.5559 2.17264 11.7696C1.99872 11.9138 1.8909 12.0028 1.69466 12.0263V10.9449C1.69466 9.99684 2.44925 9.2221 3.38937 9.18874V7.39046C3.62122 7.40628 3.73513 7.50019 3.92691 7.65934C4.18857 7.87653 4.54703 8.17396 5.21095 8.17396C5.87495 8.17396 6.23337 7.87653 6.49503 7.65934C6.70604 7.48426 6.82227 7.38779 7.10559 7.38779C7.38892 7.38779 7.50514 7.48426 7.71612 7.65934C7.97778 7.87653 8.3362 8.17396 9.00016 8.17396C9.66412 8.17396 10.0225 7.8765 10.2842 7.6593C10.4952 7.48423 10.6114 7.38776 10.8947 7.38776C11.1781 7.38776 11.2943 7.48423 11.5053 7.6593C11.767 7.8765 12.1254 8.17392 12.7893 8.17392C13.4533 8.17392 13.8117 7.8765 14.0734 7.6593C14.265 7.50026 14.3789 7.40635 14.6104 7.39046V9.18871C15.5505 9.2221 16.3052 9.99681 16.3052 10.9449V12.0262C16.1092 12.0026 16.0015 11.9137 15.8277 11.7695Z" fill="#55717C"/>
<path d="M18 15.1635V16.2182H17.1693L16.6414 18H1.35858L0.830742 16.2182H0V15.1635H18Z" fill="#55717C"/>
</svg>
