<svg width="18" height="14" viewBox="0 0 18 14" fill="none" xmlns="http://www.w3.org/2000/svg">
<path d="M16.0714 0.571289H1.92857C0.863449 0.571289 0 1.43474 0 2.49986V11.4998C0 12.565 0.863449 13.4284 1.92857 13.4284H16.0714C17.1365 13.4284 18 12.565 18 11.4998V2.49986C18 1.43474 17.1365 0.571289 16.0714 0.571289ZM16.7143 8.01941L12.6688 3.97393C12.4178 3.72296 12.0108 3.72296 11.7598 3.97393L6.42858 9.30511L4.31163 7.18817C4.06062 6.93719 3.65366 6.93719 3.40265 7.18817L1.2857 9.30511V2.49986C1.2857 2.14481 1.57352 1.85699 1.92857 1.85699H16.0714C16.4265 1.85699 16.7143 2.14481 16.7143 2.49986V8.01941H16.7143Z" fill="#55717C"/>
</svg>
