<svg width="18" height="18" viewBox="0 0 18 18" fill="none" xmlns="http://www.w3.org/2000/svg">
<path d="M4.05225 5.38922H1.41212C0.92046 6.42239 0.646628 7.54567 0.607605 8.68923H3.60453C3.6231 7.57541 3.77339 6.46771 4.05225 5.38922Z" fill="#55717C"/>
<path d="M6.58216 0.94574C4.5362 1.5659 2.80202 2.9397 1.7301 4.78948H4.22616C4.75199 3.13601 5.57781 1.78784 6.58216 0.94574Z" fill="#55717C"/>
<path d="M4.05225 12.5894C3.77336 11.5109 3.6231 10.4032 3.60457 9.28937H0.607605C0.646628 10.4329 0.92046 11.5562 1.41212 12.5894H4.05225Z" fill="#55717C"/>
<path d="M4.2262 13.1892H1.7301C2.80202 15.039 4.5362 16.4128 6.58216 17.0329C5.57781 16.1909 4.75199 14.8426 4.2262 13.1892Z" fill="#55717C"/>
<path d="M13.7738 4.78948H16.2699C15.198 2.9397 13.4638 1.5659 11.4178 0.94574C12.4222 1.78784 13.248 3.13601 13.7738 4.78948Z" fill="#55717C"/>
<path d="M13.3359 5.38922H9.29999V8.68923H13.7957C13.7775 7.5746 13.6231 6.46637 13.3359 5.38922Z" fill="#55717C"/>
<path d="M8.70004 17.3712V13.1892H4.84583C5.62981 15.5547 7.05339 17.1924 8.70004 17.3712Z" fill="#55717C"/>
<path d="M9.29999 0.607361V4.7893H13.1542C12.3703 2.42374 10.9466 0.786095 9.29999 0.607361Z" fill="#55717C"/>
<path d="M13.7957 9.28937H9.29999V12.5894H13.3359C13.6231 11.5122 13.7775 10.404 13.7957 9.28937Z" fill="#55717C"/>
<path d="M11.4178 17.0329C13.4638 16.4128 15.198 15.039 16.2699 13.1892H13.7738C13.248 14.8426 12.4222 16.1909 11.4178 17.0329Z" fill="#55717C"/>
<path d="M13.9478 12.5894H16.5879C17.0795 11.5562 17.3534 10.4329 17.3924 9.28937H14.3954C14.3769 10.4032 14.2266 11.5109 13.9478 12.5894Z" fill="#55717C"/>
<path d="M9.29999 13.1892V17.3712C10.9466 17.1924 12.3702 15.5548 13.1542 13.1892H9.29999Z" fill="#55717C"/>
<path d="M13.9478 5.38922C14.2266 6.46771 14.3769 7.57541 14.3954 8.68923H17.3924C17.3533 7.54571 17.0795 6.42243 16.5878 5.38922H13.9478Z" fill="#55717C"/>
<path d="M4.84583 4.7893H8.70004V0.607361C7.05339 0.786095 5.62981 2.42374 4.84583 4.7893Z" fill="#55717C"/>
<path d="M4.66411 12.5894H8.70001V9.28937H4.20441C4.22255 10.404 4.37695 11.5122 4.66411 12.5894Z" fill="#55717C"/>
<path d="M4.20441 8.68923H8.70005V5.38922H4.66411C4.37695 6.46637 4.22255 7.5746 4.20441 8.68923Z" fill="#55717C"/>
<path d="M17.844 1.22522L17.145 0.844197L16.764 0.145221C16.7062 0.0554668 16.6067 0.0012207 16.5 0.0012207C16.3932 0.0012207 16.2938 0.0554668 16.236 0.145221L15.855 0.844232L15.156 1.22522C15.0598 1.2782 15 1.37938 15 1.48921C15 1.59907 15.0598 1.70022 15.156 1.7532L15.855 2.13419L16.236 2.8332C16.289 2.92942 16.3901 2.98922 16.5 2.98922C16.6098 2.98922 16.711 2.92946 16.764 2.8332L17.145 2.13419L17.844 1.7532C17.9402 1.70015 17.9999 1.59904 18 1.48921C17.9999 1.37938 17.9402 1.27824 17.844 1.22522Z" fill="#55717C"/>
<path d="M2.844 16.2253L2.14499 15.8444L1.764 15.1453C1.7062 15.0556 1.60675 15.0013 1.50001 15.0013C1.39324 15.0013 1.29382 15.0556 1.23602 15.1453L0.855 15.8444L0.155988 16.2253C0.0597656 16.2784 0 16.3795 0 16.4894C0 16.5992 0.0597656 16.7004 0.155988 16.7534L0.855 17.1343L1.23599 17.8334C1.28897 17.9296 1.39015 17.9894 1.49998 17.9894C1.60984 17.9894 1.71098 17.9296 1.76396 17.8334L2.14495 17.1343L2.84396 16.7534C2.94015 16.7003 2.99992 16.5992 2.99995 16.4894C2.99995 16.3795 2.94019 16.2784 2.844 16.2253Z" fill="#55717C"/>
</svg>
