<svg width="22" height="12" viewBox="0 0 22 12" fill="none" xmlns="http://www.w3.org/2000/svg">
<path d="M17.4664 4.92477C16.1086 4.92477 15.004 3.82016 15.004 2.46238C15.004 1.1046 16.1086 0 17.4664 0C18.8242 0 19.9288 1.1046 19.9288 2.46238C19.9288 3.82016 18.8242 4.92477 17.4664 4.92477Z" fill="#55717C"/>
<path d="M4.53355 4.92477C3.17577 4.92477 2.07117 3.82016 2.07117 2.46238C2.07117 1.1046 3.17577 0 4.53355 0C5.89133 0 6.99593 1.1046 6.99593 2.46238C6.99593 3.82016 5.89133 4.92477 4.53355 4.92477Z" fill="#55717C"/>
<path d="M20.0932 5.13178C19.4164 5.79783 18.4886 6.20949 17.4663 6.20949C16.4424 6.20949 15.5133 5.79654 14.8363 5.12857C14.4769 5.38748 14.157 5.698 13.8883 6.05032L14.2413 6.35947C15.3111 7.2965 15.9247 8.64662 15.9247 10.0637V11.5625H21.3205C21.6753 11.5625 21.9629 11.2749 21.9629 10.9202V8.77894C21.9629 7.27941 21.2249 5.94917 20.0932 5.13178Z" fill="#55717C"/>
<path d="M1.90675 5.13177C0.775035 5.94915 0.0370483 7.2794 0.0370483 8.77893V10.9201C0.0370483 11.2749 0.324655 11.5625 0.679409 11.5625H6.07524V10.0637C6.07524 8.6466 6.68882 7.29649 7.75865 6.35945L8.11161 6.0503C7.84289 5.69799 7.52303 5.38747 7.16365 5.12855C6.48665 5.79653 5.5575 6.20948 4.53357 6.20948C3.51128 6.20948 2.58349 5.79781 1.90675 5.13177Z" fill="#55717C"/>
<path d="M13.3949 7.32591C12.7904 7.95671 11.9406 8.35069 11 8.35069C10.0594 8.35069 9.20958 7.95671 8.60508 7.32591C7.84272 7.99362 7.35992 8.97301 7.35992 10.0637V11.5625H14.64V10.0637C14.64 8.97301 14.1572 7.99362 13.3949 7.32591Z" fill="#55717C"/>
<path d="M11 7.06592C9.87832 7.06592 8.96582 6.15342 8.96582 5.03178C8.96582 3.91013 9.87832 2.99763 11 2.99763C12.1216 2.99763 13.0341 3.91013 13.0341 5.03178C13.0341 6.15342 12.1216 7.06592 11 7.06592Z" fill="#55717C"/>
</svg>
