<svg width="20" height="16" viewBox="0 0 20 16" fill="none" xmlns="http://www.w3.org/2000/svg">
<path d="M1.43554 16H5.53862C7.71114 16 9.72696 15.2374 11.2148 13.8527C13.6878 11.551 12.8243 9.40497 13.761 8.28864C15.1712 10.1064 15.9423 12.348 15.9423 14.6588V15.4667C15.9423 15.7612 16.181 16 16.4756 16H17.5423C17.8368 16 18.0756 15.7612 18.0756 15.4667V11.4863C18.0756 7.33468 19.4898 7.00867 18.9914 4.27057C18.6996 2.66783 17.9801 1.28355 16.8527 0.156187C16.6444 -0.0520267 16.3067 -0.0520978 16.0984 0.156187C11.2477 5.00693 9.93535 8.975 9.44131 10.4688C9.16245 11.3114 8.50922 11.6821 7.83327 11.7094C7.19661 11.7348 6.60597 11.4342 6.25261 10.9042C6.08394 10.6511 5.73837 10.5907 5.49393 10.7696L1.12059 13.9696C0.983315 14.07 0.902176 14.2299 0.902176 14.4V15.4667C0.902212 15.7612 1.141 16 1.43554 16Z" fill="#55717C"/>
</svg>
