<svg width="9" height="19" viewBox="0 0 9 19" fill="none" xmlns="http://www.w3.org/2000/svg">
<path d="M2.19794 4.23153C2.19794 4.66854 2.19794 6.6191 2.19794 6.6191H0.44873V9.53863H2.19794V18.2145H5.7912V9.53887H8.20245C8.20245 9.53887 8.42827 8.13898 8.53773 6.60833C8.2239 6.60833 5.80479 6.60833 5.80479 6.60833C5.80479 6.60833 5.80479 4.90984 5.80479 4.61213C5.80479 4.31377 6.19656 3.91245 6.58378 3.91245C6.97027 3.91245 7.786 3.91245 8.54152 3.91245C8.54152 3.51495 8.54152 2.1415 8.54152 0.873047C7.53292 0.873047 6.38546 0.873047 5.87966 0.873047C2.10912 0.872845 2.19794 3.79528 2.19794 4.23153Z" fill="#405994"/>
</svg>
