<svg width="5" height="11" viewBox="0 0 5 11" fill="none" xmlns="http://www.w3.org/2000/svg">
<path d="M1.08072 2.13035C1.08072 2.40755 1.08072 3.64483 1.08072 3.64483H0V5.49675H1.08072V11H3.30076V5.49691H4.79051C4.79051 5.49691 4.93003 4.60893 4.99766 3.63801C4.80376 3.63801 3.30915 3.63801 3.30915 3.63801C3.30915 3.63801 3.30915 2.56062 3.30915 2.37178C3.30915 2.18252 3.5512 1.92795 3.79044 1.92795C4.02923 1.92795 4.53321 1.92795 5 1.92795C5 1.67581 5 0.804607 5 6.6153e-09C4.37685 6.6153e-09 3.66791 6.6153e-09 3.35541 6.6153e-09C1.02585 -0.000127867 1.08072 1.85363 1.08072 2.13035Z" fill="white"/>
</svg>
