<svg width="18" height="12" viewBox="0 0 18 12" fill="none" xmlns="http://www.w3.org/2000/svg">
<path d="M6.76093 5.08984C6.31241 4.56148 6.04688 3.88082 6.04688 3.15625C6.04688 2.12427 6.47272 1.19007 7.15767 0.519531H2.63672C1.18283 0.519531 0 1.70236 0 3.15625C0 4.22243 0.86741 5.08984 1.93359 5.08984H6.76093Z" fill="#55717C"/>
<path d="M1.40625 10.5391C1.40625 10.8303 1.64236 11.0664 1.93359 11.0664H7.45312V6.14453H1.40625V10.5391Z" fill="#55717C"/>
<path d="M15.3633 0.519531H9.73828C8.28439 0.519531 7.10156 1.70236 7.10156 3.15625C7.10156 4.03973 7.69707 4.78666 8.50781 5.01675V11.0664H16.0664C16.3576 11.0664 16.5938 10.8303 16.5938 10.5391V5.01675C17.4045 4.78666 18 4.03973 18 3.15625C18 1.70236 16.8172 0.519531 15.3633 0.519531ZM10.9688 8.88672C10.6775 8.88672 10.4414 8.65061 10.4414 8.35938C10.4414 8.06814 10.6775 7.83203 10.9688 7.83203C11.26 7.83203 11.4961 8.06814 11.4961 8.35938C11.4961 8.65061 11.26 8.88672 10.9688 8.88672ZM10.9688 3.75391C10.6775 3.75391 10.4414 3.5178 10.4414 3.22656C10.4414 2.93533 10.6775 2.69922 10.9688 2.69922C11.26 2.69922 11.4961 2.93533 11.4961 3.22656C11.4961 3.5178 11.26 3.75391 10.9688 3.75391ZM12.5508 6.32031C12.2595 6.32031 12.0234 6.0842 12.0234 5.79297C12.0234 5.50173 12.2595 5.26562 12.5508 5.26562C12.842 5.26562 13.0781 5.50173 13.0781 5.79297C13.0781 6.0842 12.842 6.32031 12.5508 6.32031ZM14.1328 8.88672C13.8416 8.88672 13.6055 8.65061 13.6055 8.35938C13.6055 8.06814 13.8416 7.83203 14.1328 7.83203C14.424 7.83203 14.6602 8.06814 14.6602 8.35938C14.6602 8.65061 14.424 8.88672 14.1328 8.88672ZM14.1328 3.75391C13.8416 3.75391 13.6055 3.5178 13.6055 3.22656C13.6055 2.93533 13.8416 2.69922 14.1328 2.69922C14.424 2.69922 14.6602 2.93533 14.6602 3.22656C14.6602 3.5178 14.424 3.75391 14.1328 3.75391Z" fill="#55717C"/>
</svg>
