<svg width="22" height="14" viewBox="0 0 22 14" fill="none" xmlns="http://www.w3.org/2000/svg">
<path d="M21.1906 1.65442C20.9637 1.51409 20.6802 1.50128 20.4416 1.62054L15.3968 4.14329V2.30952C15.3968 1.03401 14.3628 0 13.0873 0H2.30952C1.03401 0 0 1.03401 0 2.30952V11.5476C0 12.8231 1.03401 13.8571 2.30952 13.8571H13.0873C14.3628 13.8571 15.3968 12.8231 15.3968 11.5476V9.71384L20.4416 12.2405C20.8219 12.4305 21.2843 12.2763 21.4743 11.8959C21.5284 11.7878 21.5562 11.6684 21.5555 11.5476V2.30952C21.5557 2.04266 21.4176 1.7948 21.1906 1.65442ZM7.69842 10.0079C5.99772 10.0079 4.61904 8.62926 4.61904 6.92856C4.61904 5.22786 5.99772 3.84919 7.69842 3.84919C9.39912 3.84919 10.7778 5.22786 10.7778 6.92856C10.7778 8.62926 9.39907 10.0079 7.69842 10.0079Z" fill="#2092C2"/>
</svg>
