<svg width="16" height="20" viewBox="0 0 16 20" fill="none" xmlns="http://www.w3.org/2000/svg">
<path d="M12.9219 1.875H3.07812C2.86238 1.875 2.6875 1.70012 2.6875 1.48438V0.9375C2.6875 0.419727 3.10723 0 3.625 0H12.375C12.8928 0 13.3125 0.419727 13.3125 0.9375V1.48438C13.3125 1.70012 13.1376 1.875 12.9219 1.875Z" fill="#55717C"/>
<path d="M12.375 20H3.625C3.10723 20 2.6875 19.5803 2.6875 19.0625V18.5156C2.6875 18.2999 2.86238 18.125 3.07812 18.125H12.9219C13.1376 18.125 13.3125 18.2999 13.3125 18.5156V19.0625C13.3125 19.5803 12.8928 20 12.375 20Z" fill="#55717C"/>
<path d="M12.6875 2.8125H3.3125C1.93398 2.8125 0.8125 3.93398 0.8125 5.3125V14.6875C0.8125 16.066 1.93398 17.1875 3.3125 17.1875H12.6875C14.066 17.1875 15.1875 16.066 15.1875 14.6875V5.3125C15.1875 3.93398 14.066 2.8125 12.6875 2.8125ZM5.6448 10.8404C5.81926 11.3279 5.56551 11.8645 5.07801 12.0389C4.97363 12.0763 4.86699 12.094 4.76215 12.094C4.3773 12.094 4.01656 11.8553 3.87941 11.4722C3.71059 11.0004 3.625 10.5051 3.625 10C3.625 9.49492 3.71059 8.99961 3.87945 8.52781C4.05395 8.04035 4.59051 7.78656 5.07805 7.96105C5.56551 8.13555 5.8193 8.67215 5.64484 9.15965C5.54871 9.42809 5.5 9.71086 5.5 10C5.5 10.2891 5.54871 10.5719 5.6448 10.8404ZM9.47211 14.1206C9.00031 14.2894 8.50508 14.375 8 14.375C7.49492 14.375 6.99969 14.2894 6.52789 14.1206C6.04039 13.9461 5.7866 13.4095 5.96105 12.922C6.13551 12.4345 6.67207 12.1808 7.15961 12.3552C7.42809 12.4513 7.71086 12.5 8 12.5C8.28914 12.5 8.57191 12.4513 8.84039 12.3552C9.32773 12.1808 9.86449 12.4345 10.0389 12.922C10.2134 13.4095 9.95961 13.9461 9.47211 14.1206ZM10.0389 7.07797C9.9018 7.46109 9.54102 7.69984 9.15617 7.69984C9.05133 7.69984 8.94473 7.68211 8.84035 7.64477C8.57191 7.54871 8.28914 7.5 8 7.5C7.71086 7.5 7.42809 7.54871 7.15961 7.6448C6.67223 7.8193 6.13551 7.56551 5.96105 7.07797C5.7866 6.59051 6.04035 6.05387 6.52789 5.87941C6.99969 5.71059 7.49492 5.625 8 5.625C8.50508 5.625 9.00031 5.71059 9.47211 5.87941C9.95961 6.05387 10.2134 6.59047 10.0389 7.07797ZM12.1205 11.4722C11.9834 11.8553 11.6226 12.094 11.2378 12.094C11.1329 12.094 11.0264 12.0763 10.922 12.0389C10.4345 11.8645 10.1807 11.3279 10.3552 10.8404C10.4513 10.5719 10.5 10.2892 10.5 10C10.5 9.71082 10.4513 9.42809 10.3552 9.15965C10.1807 8.67215 10.4345 8.13555 10.922 7.96105C11.4095 7.78664 11.9461 8.04035 12.1205 8.52781C12.2894 8.99961 12.375 9.49492 12.375 10C12.375 10.5051 12.2894 11.0004 12.1205 11.4722Z" fill="#55717C"/>
</svg>
