<svg width="22" height="14" viewBox="0 0 22 14" fill="none" xmlns="http://www.w3.org/2000/svg">
<path fill-rule="evenodd" clip-rule="evenodd" d="M21.9267 10.1612L20.452 3.89451C20.0549 2.20632 18.4988 0.470459 16.1292 0.470459H5.87096C4.13661 0.470459 2.09058 1.58781 1.54793 3.89451L0.0732391 10.1612C-0.327073 11.8623 0.964163 13.4943 2.71395 13.4943C3.45751 13.4943 4.15692 13.0982 4.53911 12.4608L5.67509 10.5679C5.86928 10.2439 6.22444 10.0429 6.6021 10.0429H15.3977C15.7754 10.0429 16.1307 10.2441 16.3249 10.568L17.4607 12.4607C17.8431 13.0982 18.5425 13.4943 19.2869 13.4943C21.034 13.4943 22.3274 11.864 21.9267 10.1612ZM8.23893 5.9011H7.50276V6.63727C7.50276 6.99311 7.21423 7.28163 6.85823 7.28163C6.5024 7.28163 6.21387 6.99311 6.21387 6.63727V5.9011H5.4777C5.12187 5.9011 4.83334 5.61258 4.83334 5.25674C4.83334 4.90074 5.12187 4.61222 5.4777 4.61222H6.21387V3.87605C6.21387 3.52021 6.5024 3.23169 6.85823 3.23169C7.21423 3.23169 7.50276 3.52021 7.50276 3.87605V4.61222H8.23893C8.59476 4.61222 8.88329 4.90074 8.88329 5.25674C8.88329 5.61258 8.59476 5.9011 8.23893 5.9011ZM13.761 5.9011C13.4054 5.9011 13.1167 5.61241 13.1167 5.25674C13.1167 4.90091 13.4055 4.61222 13.761 4.61222C14.1169 4.61222 14.4056 4.90091 14.4056 5.25674C14.4056 5.61241 14.1169 5.9011 13.761 5.9011ZM15.1417 7.28163C14.7861 7.28163 14.4972 6.99294 14.4972 6.63727C14.4972 6.28161 14.7861 5.99275 15.1417 5.99275C15.4974 5.99275 15.7861 6.28161 15.7861 6.63727C15.7861 6.99294 15.4974 7.28163 15.1417 7.28163ZM15.1417 4.52057C14.7861 4.52057 14.4972 4.23188 14.4972 3.87605C14.4972 3.52038 14.7861 3.23169 15.1417 3.23169C15.4974 3.23169 15.7861 3.52038 15.7861 3.87605C15.7861 4.23188 15.4974 4.52057 15.1417 4.52057ZM16.5223 5.9011C16.1666 5.9011 15.8777 5.61241 15.8777 5.25674C15.8777 4.90091 16.1666 4.61222 16.5223 4.61222C16.8779 4.61222 17.1666 4.90091 17.1666 5.25674C17.1666 5.61241 16.8779 5.9011 16.5223 5.9011Z" fill="#55717C"/>
</svg>
