<svg width="16" height="24" viewBox="0 0 16 24" fill="none" xmlns="http://www.w3.org/2000/svg">
<path d="M11.7237 3.29989C11.8528 3.30004 11.9795 3.26466 12.09 3.19764C12.2004 3.13062 12.2902 3.03452 12.3497 2.91987C12.4091 2.80521 12.4359 2.67642 12.4271 2.54756C12.4182 2.41871 12.3741 2.29477 12.2996 2.18929C12.2251 2.08381 12.123 2.00087 12.0045 1.94952C11.886 1.89818 11.7556 1.88041 11.6277 1.89817C11.4998 1.91593 11.3792 1.96852 11.2791 2.05021C11.1791 2.13189 11.1034 2.23952 11.0605 2.36131H10.5176V2.83006H11.0605C11.109 2.96726 11.1988 3.08607 11.3175 3.17019C11.4363 3.25432 11.5782 3.29962 11.7237 3.29989Z" fill="#55717C"/>
<path d="M5.48212 2.8299H5.85032V2.36115H5.48212C5.41996 2.36115 5.36034 2.38584 5.31639 2.42979C5.27244 2.47375 5.24774 2.53336 5.24774 2.59552C5.24774 2.65768 5.27244 2.71729 5.31639 2.76125C5.36034 2.8052 5.41996 2.8299 5.48212 2.8299Z" fill="#55717C"/>
<path d="M3.92522 9.35658C3.95818 8.94334 4.08407 8.54288 4.29348 8.1851C4.5029 7.82732 4.79042 7.52147 5.1346 7.29038C5.61961 6.96284 6.16084 6.72749 6.73116 6.59611C6.12235 5.56107 6.00103 4.80493 5.99522 4.76761C5.98579 4.70617 6.00116 4.64349 6.03794 4.59338C6.07472 4.54326 6.1299 4.50981 6.19135 4.50038C6.25279 4.49095 6.31547 4.50631 6.36558 4.5431C6.4157 4.57988 6.44915 4.63506 6.45858 4.6965C6.46013 4.70644 6.62508 5.7053 7.52161 6.95035C8.32275 8.06297 9.88364 9.59832 12.8015 10.6969V7.6695C12.8015 7.06312 12.682 6.46267 12.45 5.90244C12.2179 5.34221 11.8778 4.83317 11.449 4.40439C11.0202 3.97561 10.5112 3.63549 9.95097 3.40343C9.39074 3.17138 8.79029 3.05194 8.18391 3.05194C7.57752 3.05194 6.97707 3.17138 6.41684 3.40343C5.85661 3.63549 5.34758 3.97561 4.9188 4.40439C4.49002 4.83317 4.14989 5.34221 3.91784 5.90244C3.68578 6.46267 3.56635 7.06312 3.56635 7.6695V8.32299C3.56617 8.6834 3.62938 9.04104 3.7531 9.37955C3.80963 9.36658 3.86726 9.35889 3.92522 9.35658ZM10.3369 7.54116C10.3565 7.51743 10.3806 7.49779 10.4078 7.48337C10.435 7.46894 10.4647 7.46002 10.4954 7.4571C10.526 7.45419 10.5569 7.45733 10.5864 7.46637C10.6158 7.4754 10.6431 7.49015 10.6669 7.50975C10.7863 7.60819 10.91 7.70457 11.0346 7.79569C11.0594 7.81385 11.0805 7.83673 11.0965 7.86302C11.1125 7.88931 11.1232 7.91849 11.1279 7.94891C11.1326 7.97933 11.1313 8.01038 11.1241 8.04029C11.1168 8.07021 11.1037 8.0984 11.0856 8.12325C11.0674 8.14811 11.0445 8.16915 11.0182 8.18516C10.9919 8.20118 10.9628 8.21186 10.9323 8.21659C10.9019 8.22133 10.8709 8.22003 10.841 8.21276C10.811 8.2055 10.7829 8.19241 10.758 8.17425C10.6259 8.07783 10.4948 7.97588 10.3681 7.87125C10.3444 7.85164 10.3248 7.82754 10.3103 7.80033C10.2959 7.77312 10.287 7.74334 10.2841 7.71269C10.2812 7.68203 10.2844 7.6511 10.2934 7.62167C10.3025 7.59224 10.3172 7.56488 10.3369 7.54116ZM8.08659 4.31274C8.14506 4.29164 8.2095 4.29463 8.26576 4.32104C8.32202 4.34746 8.36549 4.39514 8.38659 4.4536C8.39128 4.46616 8.85595 5.72391 10.053 6.94538C10.0748 6.9673 10.0921 6.99332 10.1038 7.02195C10.1155 7.05058 10.1215 7.08124 10.1213 7.11217C10.1211 7.1431 10.1148 7.17369 10.1027 7.20217C10.0907 7.23066 10.0731 7.25647 10.051 7.27812C10.0289 7.29978 10.0027 7.31684 9.97402 7.32834C9.9453 7.33984 9.91459 7.34553 9.88366 7.3451C9.85273 7.34467 9.8222 7.33813 9.79381 7.32584C9.76542 7.31355 9.73975 7.29576 9.71827 7.2735C8.4457 5.97507 7.96547 4.66772 7.94564 4.61269C7.92456 4.55422 7.92757 4.48978 7.95401 4.43353C7.98044 4.37728 8.02813 4.33383 8.08659 4.31274Z" fill="#55717C"/>
<path d="M3.96203 10.7654H4.14995C4.21211 10.7654 4.27173 10.7901 4.31568 10.8341C4.35964 10.878 4.38433 10.9376 4.38433 10.9998V11.3378C4.38773 12.2702 4.76052 13.1633 5.42106 13.8214C6.08159 14.4796 6.97602 14.8491 7.90846 14.8491C8.8409 14.8491 9.73533 14.4796 10.3959 13.8214C11.0564 13.1633 11.4292 12.2702 11.4326 11.3378V10.6251C9.14922 9.54193 7.84263 8.20632 7.1223 7.19771C7.07936 7.13761 7.03858 7.07827 6.99878 7.01935C6.42474 7.12778 5.87901 7.35273 5.39528 7.68029C5.08251 7.89083 4.82658 8.17537 4.65022 8.50861C4.47385 8.84186 4.38252 9.2135 4.38433 9.59054C4.38433 9.6527 4.35964 9.71231 4.31568 9.75626C4.27173 9.80022 4.21211 9.82491 4.14995 9.82491H3.96203C3.8381 9.82615 3.71966 9.87625 3.63246 9.96433C3.54525 10.0524 3.49634 10.1713 3.49634 10.2953C3.49634 10.4192 3.54525 10.5382 3.63246 10.6262C3.71966 10.7143 3.8381 10.7644 3.96203 10.7656V10.7654Z" fill="#55717C"/>
<path d="M8.18407 2.58319C8.91106 2.5824 9.62967 2.73838 10.2909 3.0405C10.2956 2.982 10.2988 2.92331 10.2988 2.86453C10.2962 2.3054 10.0722 1.77007 9.6759 1.37564C9.27961 0.981201 8.74323 0.759766 8.18409 0.759766C7.62496 0.759766 7.08858 0.981201 6.69228 1.37564C6.29599 1.77007 6.07203 2.3054 6.0694 2.86453C6.0694 2.92336 6.07263 2.982 6.07741 3.0404C6.73861 2.73835 7.45715 2.5824 8.18407 2.58319Z" fill="#55717C"/>
<path d="M9.17832 18.8399L9.80494 16.7952V14.8507C9.253 15.1492 8.63838 15.3132 8.0111 15.3293C7.38381 15.3455 6.76158 15.2133 6.19501 14.9436V16.7952L6.82215 18.8415C7.58117 19.1298 8.41968 19.1292 9.17832 18.8399Z" fill="#55717C"/>
<path d="M8.31696 23.2499H15.7609V19.5344C15.7602 18.8693 15.4957 18.2318 15.0254 17.7615C14.5552 17.2912 13.9176 17.0267 13.2525 17.026H10.2244L8.31696 23.2499ZM11.1885 20.3417H13.581C13.6432 20.3417 13.7028 20.3664 13.7467 20.4104C13.7907 20.4543 13.8154 20.5139 13.8154 20.5761C13.8154 20.6383 13.7907 20.6979 13.7467 20.7418C13.7028 20.7858 13.6432 20.8105 13.581 20.8105H11.1885C11.1263 20.8105 11.0667 20.7858 11.0227 20.7418C10.9788 20.6979 10.9541 20.6383 10.9541 20.5761C10.9541 20.5139 10.9788 20.4543 11.0227 20.4104C11.0667 20.3664 11.1263 20.3417 11.1885 20.3417Z" fill="#55717C"/>
<path d="M9.01024 19.3881C8.34951 19.5727 7.65088 19.5731 6.98993 19.3893L7.99994 22.6845L9.01024 19.3881Z" fill="#55717C"/>
<path d="M5.77544 17.026H2.74731C2.08227 17.0267 1.44467 17.2912 0.974414 17.7615C0.504154 18.2318 0.239636 18.8693 0.238892 19.5344V23.2499H7.68302L5.77544 17.026Z" fill="#55717C"/>
</svg>
