<svg width="15" height="15" viewBox="0 0 15 15" fill="none" xmlns="http://www.w3.org/2000/svg">
<path fill-rule="evenodd" clip-rule="evenodd" d="M7.645 8.925V6.135H14.809C14.916 6.608 15 7.05 15 7.672C15 11.956 12.069 15 7.653 15C3.43 15 0 11.64 0 7.5C0 3.36 3.429 0 7.653 0C9.719 0 11.449 0.742 12.773 1.957L10.599 4.027C10.049 3.517 9.084 2.917 7.653 2.917C5.12 2.917 3.053 4.98 3.053 7.507C3.053 10.035 5.12 12.097 7.653 12.097C10.584 12.097 11.663 10.11 11.863 8.933H7.644V8.925H7.645Z" fill="#5085ED"/>
</svg>
