<svg width="20" height="16" viewBox="0 0 20 16" fill="none" xmlns="http://www.w3.org/2000/svg">
<path d="M18.1105 6.88298L19.1838 6.79416L18.8984 3.34534L15.4496 3.05992L15.3608 4.13332L17.1969 4.28526L15.2592 6.22299C13.9998 5.19825 12.3712 4.84748 10.8589 5.17038C10.6716 4.72987 10.4214 4.30996 10.1079 3.92466L12.0456 1.98692L12.1976 3.82306L13.2709 3.73423L12.9856 0.285421L9.53675 0L9.44789 1.0734L11.284 1.22533L9.34629 3.16307C7.29306 1.49226 4.25801 1.61268 2.34631 3.52439C0.306033 5.56466 0.306033 8.88441 2.34631 10.9247C3.36646 11.9448 4.70643 12.4549 6.04643 12.4549C6.41543 12.4549 6.78443 12.416 7.14676 12.3386C7.40127 12.937 7.77188 13.4974 8.25914 13.9846C9.2793 15.0048 10.6193 15.5149 11.9593 15.5149C13.2993 15.5149 14.6393 15.0048 15.6594 13.9846C17.5711 12.0729 17.6916 9.03789 16.0208 6.98462L17.9585 5.04688L18.1105 6.88298ZM8.98501 10.1631C8.64814 10.5 8.26736 10.7665 7.86103 10.9633C7.65121 9.68603 8.0377 8.32897 9.02073 7.3459C9.35756 7.0091 9.73834 6.74257 10.1447 6.54575C10.3545 7.82304 9.96804 9.18006 8.98501 10.1631Z" fill="#55717C"/>
</svg>
