<svg width="18" height="9" viewBox="0 0 18 9" fill="none" xmlns="http://www.w3.org/2000/svg">
<path d="M0 9V0H1.76503V3.81006H6.2799V0H8.04969V9H6.2799V5.17676H1.76503V9H0Z" fill="white"/>
<path d="M13.271 9H9.96934V0H13.3377C14.7903 0 15.9305 0.398438 16.7583 1.19531C17.5861 1.99219 18 3.09082 18 4.49121C18 5.90039 17.5813 7.00488 16.744 7.80469C15.9099 8.60156 14.7522 9 13.271 9ZM11.7344 7.58935H13.1854C15.228 7.58935 16.2492 6.55664 16.2492 4.49121C16.2492 3.46582 15.9955 2.69678 15.488 2.18408C14.9806 1.66846 14.2305 1.41064 13.2377 1.41064H11.7344V7.58935Z" fill="white"/>
</svg>
