<svg width="16" height="16" viewBox="0 0 16 16" fill="none" xmlns="http://www.w3.org/2000/svg">
<path d="M8 0C3.58172 0 0 3.58172 0 8C0 12.4183 3.58172 16 8 16C12.4183 16 16 12.4183 16 8C16 3.58172 12.4183 0 8 0ZM11 4C11.5523 4 12 4.67156 12 5.5C12 6.32844 11.5523 7 11 7C10.4477 7 10 6.32844 10 5.5C10 4.67156 10.4477 4 11 4ZM5 4C5.55228 4 6 4.67156 6 5.5C6 6.32844 5.55228 7 5 7C4.44772 7 4 6.32844 4 5.5C4 4.67156 4.44772 4 5 4ZM8 14C5.39269 14 3.22778 11.8145 3 9.0265C4.46516 9.87203 6.18828 10.3556 8 10.3556C9.81172 10.3556 11.5348 9.87428 13 9.02875C12.7723 11.8168 10.6074 14 8 14Z" fill="#55717C"/>
</svg>
