<svg width="14" height="20" viewBox="0 0 14 20" fill="none" xmlns="http://www.w3.org/2000/svg">
<path d="M12.5417 4.47917V13.6815C12.5417 13.9268 12.2863 14.0869 12.0645 13.982C11.532 13.7299 10.938 13.5904 10.3096 13.5904C9.759 13.5904 9.69346 13.1247 9.94575 12.947C11.2955 11.9966 12.125 10.4456 12.125 8.755V6.875C12.125 6.473 11.8837 6.11013 11.515 5.95417C10.0695 5.34158 8.79321 4.43738 7.75 3.255C7.35142 2.80396 6.64833 2.80425 6.25 3.255C5.20704 4.43713 3.93083 5.34142 2.485 5.95417C2.11783 6.11 1.875 6.47117 1.875 6.875C1.875 8.80267 1.80483 9.43692 2.16667 10.46C2.524 11.4705 3.18992 12.3364 4.05075 12.9444C4.30704 13.1254 4.24171 13.5904 3.69042 13.5904C3.09175 13.5904 2.50904 13.7172 1.97338 13.9642C1.75225 14.0661 1.5 13.9055 1.5 13.662V4.47917C1.5 2.00538 3.50538 0 5.97917 0H8.0625C10.5363 0 12.5417 2.00538 12.5417 4.47917ZM11.4583 6.875V8.755C11.4583 11.2133 9.45833 13.2133 7 13.2133C4.54167 13.2133 2.54167 11.2133 2.54167 8.755V6.875C2.54167 6.74125 2.62167 6.62042 2.745 6.56792C4.29383 5.91238 5.65113 4.94196 6.75 3.69625C6.883 3.54575 7.117 3.54575 7.25 3.69625C8.34804 4.941 9.705 5.91188 11.255 6.56792C11.3783 6.62042 11.4583 6.74125 11.4583 6.875ZM7.33333 6C7.33333 5.81592 7.18408 5.66667 7 5.66667C6.81592 5.66667 6.66667 5.81592 6.66667 6V6.33333C6.66667 6.51742 6.81592 6.66667 7 6.66667C7.18408 6.66667 7.33333 6.51742 7.33333 6.33333V6ZM10.4547 14.2608C10.3067 14.2561 10.1955 14.2606 10.049 14.233C9.99792 14.2234 9.94525 14.2242 9.89513 14.2379C6.90742 15.0531 4.36183 16.9728 2.76229 19.6313C2.66475 19.7934 2.7815 20 2.97067 20H3.92142C4.0375 20 4.14446 19.9389 4.20517 19.84C5.65375 17.48 7.8075 15.5922 10.4979 14.5015C10.6233 14.4506 10.59 14.265 10.4547 14.2608ZM8.73929 13.576C7.60104 13.9877 6.34454 13.9816 5.21042 13.5576C5.07163 13.5058 4.91325 13.551 4.82717 13.6716C4.79258 13.72 4.75492 13.7663 4.71463 13.81C4.58213 13.9533 4.60129 14.1796 4.75546 14.2992L5.83129 15.1321C5.94254 15.2183 6.09629 15.225 6.21504 15.1492C7.11379 14.5733 8.00588 14.1629 8.83546 13.8708C9.05587 13.7933 8.92521 13.5088 8.73929 13.576ZM5.10996 15.4167L3.71083 14.3335C3.64658 14.2837 3.56638 14.2593 3.48529 14.2641C1.67633 14.37 0.25 15.8675 0.25 17.6975V19.6667C0.25 19.8507 0.39925 20 0.583333 20H1.59188C1.71546 20 1.82808 19.9312 1.88663 19.8223C2.69075 18.3273 3.77725 17.0131 5.11492 15.9395C5.28279 15.8048 5.28021 15.5484 5.10996 15.4167ZM11.8424 14.732C9.15696 15.5483 6.80304 17.2134 5.14571 19.6183C5.03446 19.7798 5.14962 20 5.34571 20H13.4167C13.6007 20 13.75 19.8507 13.75 19.6667V17.6975C13.75 16.4684 13.1072 15.381 12.1135 14.7676C12.0325 14.7176 11.9335 14.7043 11.8424 14.732Z" fill="#55717C"/>
</svg>
