<svg width="10" height="10" viewBox="0 0 10 10" fill="none" xmlns="http://www.w3.org/2000/svg">
<path d="M9.62251 0.377667C9.37077 0.125851 9.06908 0 8.71761 0H1.28261C0.931034 0 0.629438 0.125897 0.377622 0.377667C0.125851 0.62937 0 0.931011 0 1.28252V8.71745C0 9.06892 0.125828 9.37063 0.377622 9.62236C0.629438 9.8741 0.931102 10 1.28261 10H8.71752C9.06892 10 9.3707 9.8741 9.62245 9.62236C9.87426 9.37063 10 9.06892 10 8.71745V1.28252C9.99998 0.930943 9.87426 0.629461 9.62251 0.377667ZM3.59062 3.60348C3.98339 3.22376 4.45541 3.03381 5.00664 3.03381C5.56212 3.03381 6.03627 3.22376 6.42912 3.60348C6.82198 3.98327 7.01829 4.4423 7.01829 4.98048C7.01829 5.51859 6.82198 5.97764 6.42912 6.35732C6.03627 6.7372 5.56228 6.92713 5.00664 6.92713C4.45544 6.92713 3.98345 6.73704 3.59062 6.35732C3.19777 5.9776 3.00136 5.51859 3.00136 4.98048C3.00136 4.4423 3.19777 3.98329 3.59062 3.60348ZM8.86736 8.45063C8.86736 8.56339 8.82819 8.65775 8.75013 8.73376C8.67185 8.80969 8.57867 8.84768 8.47006 8.84768H1.51051C1.39768 8.84768 1.30321 8.80969 1.22732 8.73376C1.15131 8.65792 1.11335 8.56339 1.11335 8.45063V4.23171H2.03129C1.94452 4.50519 1.90113 4.78953 1.90113 5.0846C1.90113 5.91813 2.20491 6.62872 2.81255 7.21695C3.42026 7.80496 4.15158 8.0991 5.00661 8.0991C5.57086 8.0991 6.09166 7.96449 6.56925 7.69541C7.04668 7.42617 7.42405 7.06059 7.70202 6.5983C7.97984 6.13603 8.11873 5.63144 8.11873 5.08462C8.11873 4.78955 8.07518 4.50528 7.98841 4.23174H8.86741V8.45066H8.86736V8.45063ZM8.86736 2.63665C8.86736 2.76252 8.82397 2.86888 8.73702 2.95567C8.65025 3.04252 8.54397 3.0859 8.41802 3.0859H7.28525C7.15944 3.0859 7.053 3.0425 6.96623 2.95567C6.87944 2.86888 6.83607 2.76252 6.83607 2.63665V1.56252C6.83607 1.44098 6.87944 1.33575 6.96623 1.24674C7.05302 1.15779 7.15947 1.11325 7.28525 1.11325H8.41802C8.54397 1.11325 8.65028 1.15777 8.73702 1.24674C8.82395 1.33575 8.86736 1.44098 8.86736 1.56252V2.63665Z" fill="white"/>
</svg>
