<svg width="14" height="10" viewBox="0 0 14 10" fill="none" xmlns="http://www.w3.org/2000/svg">
<path d="M11.8405 4.21513C11.7171 4.174 11.5981 4.13462 11.4844 4.097C10.6129 3.81262 10.0879 3.64025 10.0879 2.93587C10.0879 2.3645 10.5122 1.95062 11.0968 1.95062C11.5448 1.95062 11.879 2.144 12.1783 2.57975C12.2063 2.62 12.2596 2.63488 12.3025 2.61125L13.1819 2.14488C13.2055 2.13262 13.2239 2.11075 13.2309 2.08362C13.2379 2.0565 13.2353 2.0285 13.223 2.004C12.7514 1.13425 12.0724 0.711625 11.1458 0.711625C9.73612 0.711625 8.82438 1.598 8.82438 2.96912C8.82438 4.37087 9.70638 4.93875 11.3321 5.49437C12.2736 5.82075 12.691 5.99312 12.691 6.68962C12.691 7.47275 12.0111 8.03537 11.0836 8.00212C10.1115 7.968 9.8175 7.43338 9.44738 6.55663C8.82088 5.07175 8.10775 3.33925 8.10162 3.32263C7.38675 1.60763 5.96837 0.625 4.2105 0.625C1.88912 0.625 0 2.58763 0 5.00088C0 7.41238 1.88912 9.375 4.2105 9.375C5.47662 9.375 6.664 8.79225 7.46725 7.77462C7.49 7.74487 7.49613 7.70462 7.48125 7.66962L6.951 6.39738C6.93612 6.36238 6.902 6.33788 6.86437 6.33613C6.82587 6.33438 6.79175 6.35625 6.77425 6.39037C6.27288 7.38525 5.29025 8.003 4.2105 8.003C2.61712 8.003 1.32125 6.65637 1.32125 5C1.32125 3.34363 2.61712 1.997 4.2105 1.997C5.37075 1.997 6.433 2.71187 6.85563 3.77938L8.169 6.89L8.32037 7.23913C8.91362 8.675 9.786 9.319 11.1519 9.32425C12.7759 9.32425 14 8.206 14 6.72375C14 5.23713 13.2081 4.67887 11.8405 4.21513Z" fill="white"/>
</svg>
