<svg width="23" height="13" viewBox="0 0 23 13" fill="none" xmlns="http://www.w3.org/2000/svg">
<path fill-rule="evenodd" clip-rule="evenodd" d="M16.2928 7.11208H6.50659V5.61208H16.2928V7.11208Z" fill="#151515"/>
<path fill-rule="evenodd" clip-rule="evenodd" d="M5.6431 2.21899C3.35493 2.21899 1.5 4.07392 1.5 6.36209C1.5 8.65026 3.35493 10.5052 5.64309 10.5052H9.81662V12.0052H5.64309C2.5265 12.0052 0 9.47868 0 6.36209C0 3.24549 2.5265 0.718994 5.6431 0.718994H10.1044V2.21899H5.6431Z" fill="#151515"/>
<path fill-rule="evenodd" clip-rule="evenodd" d="M16.7245 10.5052C19.0127 10.5052 20.8676 8.65027 20.8676 6.3621C20.8676 4.07393 19.0127 2.21901 16.7245 2.21901L12.551 2.21901V0.719006L16.7245 0.719006C19.8411 0.719006 22.3676 3.24551 22.3676 6.3621C22.3676 9.4787 19.8411 12.0052 16.7245 12.0052H12.2632V10.5052H16.7245Z" fill="#151515"/>
</svg>
