<svg width="42" height="58" viewBox="0 0 42 58" fill="none" xmlns="http://www.w3.org/2000/svg">
<mask id="path-1-inside-1" fill="white">
<path d="M22.7079 52.6358C23.6554 53.9931 25.5371 54.337 26.7808 53.2447C30.9025 49.6248 33.8404 44.8142 35.1632 39.4414C36.726 33.0941 35.9279 26.395 32.9177 20.5925C29.9076 14.7899 24.8906 10.2795 18.8015 7.90164C13.6474 5.88888 8.02265 5.52025 2.68956 6.80516C1.08036 7.19286 0.277909 8.92922 0.841829 10.4854C1.40575 12.0417 3.12339 12.8231 4.74411 12.4868C8.69537 11.667 12.8226 12.0018 16.6211 13.4852C21.3555 15.3341 25.2564 18.841 27.5969 23.3527C29.9374 27.8644 30.5579 33.0731 29.3429 38.0084C28.368 41.968 26.2649 45.535 23.3191 48.293C22.1108 49.4244 21.7605 51.2786 22.7079 52.6358Z"/>
</mask>
<path d="M22.7079 52.6358C23.6554 53.9931 25.5371 54.337 26.7808 53.2447C30.9025 49.6248 33.8404 44.8142 35.1632 39.4414C36.726 33.0941 35.9279 26.395 32.9177 20.5925C29.9076 14.7899 24.8906 10.2795 18.8015 7.90164C13.6474 5.88888 8.02265 5.52025 2.68956 6.80516C1.08036 7.19286 0.277909 8.92922 0.841829 10.4854C1.40575 12.0417 3.12339 12.8231 4.74411 12.4868C8.69537 11.667 12.8226 12.0018 16.6211 13.4852C21.3555 15.3341 25.2564 18.841 27.5969 23.3527C29.9374 27.8644 30.5579 33.0731 29.3429 38.0084C28.368 41.968 26.2649 45.535 23.3191 48.293C22.1108 49.4244 21.7605 51.2786 22.7079 52.6358Z" stroke="#2092C2" stroke-width="12" mask="url(#path-1-inside-1)"/>
</svg>
