<svg width="16" height="16" viewBox="0 0 16 16" fill="none" xmlns="http://www.w3.org/2000/svg">
<path d="M14.7307 2.26709C13.9025 1.36877 12.766 0.874023 11.5304 0.874023C10.6068 0.874023 9.76099 1.16602 9.01636 1.74182C8.64062 2.03247 8.30017 2.38806 8 2.8031C7.69995 2.38818 7.35938 2.03247 6.98352 1.74182C6.23901 1.16602 5.39319 0.874023 4.4696 0.874023C3.23401 0.874023 2.09741 1.36877 1.26917 2.26709C0.450806 3.15491 0 4.3678 0 5.6825C0 7.03564 0.504272 8.27429 1.58691 9.58069C2.55542 10.7493 3.94739 11.9355 5.55933 13.3092C6.10974 13.7783 6.73364 14.3101 7.38147 14.8765C7.55261 15.0264 7.77222 15.1089 8 15.1089C8.22766 15.1089 8.44739 15.0264 8.61829 14.8767C9.26611 14.3102 9.89038 13.7782 10.441 13.3088C12.0527 11.9354 13.4447 10.7493 14.4132 9.58057C15.4958 8.27429 16 7.03564 16 5.68237C16 4.3678 15.5492 3.15491 14.7307 2.26709Z" fill="#55717C"/>
</svg>
