<svg width="18" height="17" viewBox="0 0 18 17" fill="none" xmlns="http://www.w3.org/2000/svg">
<path d="M16.8111 0.145425C16.6895 0.037961 16.5284 -0.0136443 16.367 0.0030998L6.07946 1.14615C5.78989 1.1782 5.57078 1.42293 5.57081 1.71424V11.8995C5.05281 11.5896 4.45987 11.4273 3.85621 11.4303C2.2805 11.4303 0.998535 12.4556 0.998535 13.7164C0.998535 14.9772 2.2805 16.0026 3.85618 16.0026C5.43187 16.0026 6.71383 14.9778 6.71383 13.7164V5.08634L15.8583 4.06786V10.7548C15.3402 10.4454 14.7472 10.2837 14.1437 10.2873C12.568 10.2873 11.2861 11.3126 11.2861 12.5734C11.2861 13.8342 12.5681 14.8595 14.1437 14.8595C15.7194 14.8595 17.0014 13.8348 17.0014 12.5734V0.571227C17.0014 0.408675 16.9322 0.253826 16.8111 0.145425Z" fill="#55717C"/>
</svg>
