<svg width="18" height="18" viewBox="0 0 18 18" fill="none" xmlns="http://www.w3.org/2000/svg">
<path d="M9 13.8867C11.6989 13.8867 13.8867 11.6989 13.8867 9C13.8867 6.30114 11.6989 4.11328 9 4.11328C6.30114 4.11328 4.11328 6.30114 4.11328 9C4.11328 11.6989 6.30114 13.8867 9 13.8867Z" fill="#55717C"/>
<path d="M9 2.87026C9.29123 2.87026 9.52734 2.63415 9.52734 2.34292V0.527344C9.52734 0.236109 9.29123 0 9 0C8.70877 0 8.47266 0.236109 8.47266 0.527344V2.34292C8.47266 2.63415 8.70877 2.87026 9 2.87026Z" fill="#55717C"/>
<path d="M17.4727 8.47266H15.6571C15.3659 8.47266 15.1298 8.70877 15.1298 9C15.1298 9.29123 15.3659 9.52734 15.6571 9.52734H17.4727C17.7639 9.52734 18 9.29123 18 9C18 8.70877 17.7639 8.47266 17.4727 8.47266Z" fill="#55717C"/>
<path d="M9 15.1298C8.70877 15.1298 8.47266 15.3659 8.47266 15.6572V17.4727C8.47266 17.764 8.70877 18.0001 9 18.0001C9.29123 18.0001 9.52734 17.764 9.52734 17.4727V15.6572C9.52734 15.3659 9.29123 15.1298 9 15.1298Z" fill="#55717C"/>
<path d="M2.87026 9C2.87026 8.70877 2.63415 8.47266 2.34292 8.47266H0.527344C0.236109 8.47266 0 8.70877 0 9C0 9.29123 0.236109 9.52734 0.527344 9.52734H2.34292C2.63415 9.52734 2.87026 9.29123 2.87026 9Z" fill="#55717C"/>
<path d="M13.7073 4.82004C13.8423 4.82004 13.9772 4.76857 14.0802 4.66557L15.364 3.38177C15.5699 3.17582 15.5699 2.84194 15.364 2.636C15.158 2.43005 14.8241 2.43005 14.6182 2.636L13.3344 3.9198C13.1284 4.12574 13.1284 4.45962 13.3344 4.66557C13.4374 4.76857 13.5724 4.82004 13.7073 4.82004Z" fill="#55717C"/>
<path d="M14.0802 13.3345C13.8742 13.1285 13.5403 13.1285 13.3344 13.3345C13.1284 13.5404 13.1284 13.8743 13.3344 14.0802L14.6182 15.364C14.7212 15.467 14.8562 15.5185 14.9911 15.5185C15.126 15.5185 15.261 15.467 15.364 15.364C15.5699 15.158 15.5699 14.8242 15.364 14.6182L14.0802 13.3345Z" fill="#55717C"/>
<path d="M3.91983 13.3343L2.63603 14.6181C2.43008 14.8241 2.43008 15.158 2.63603 15.3639C2.739 15.4669 2.87396 15.5184 3.00889 15.5184C3.14382 15.5184 3.27882 15.4669 3.38176 15.3639L4.66556 14.0801C4.87151 13.8742 4.87151 13.5403 4.66556 13.3343C4.45969 13.1284 4.12574 13.1284 3.91983 13.3343Z" fill="#55717C"/>
<path d="M3.91986 4.66557C4.02284 4.76854 4.1578 4.82004 4.29273 4.82004C4.42766 4.82004 4.56266 4.76857 4.6656 4.66557C4.87155 4.45962 4.87155 4.12574 4.6656 3.9198L3.3818 2.636C3.17589 2.43005 2.84197 2.43005 2.63603 2.636C2.43008 2.84194 2.43008 3.17582 2.63603 3.38177L3.91986 4.66557Z" fill="#55717C"/>
<path d="M11.3524 3.33961C11.4186 3.3671 11.4871 3.38011 11.5546 3.38011C11.7613 3.38011 11.9575 3.2578 12.0418 3.05498L12.7385 1.37845C12.8503 1.10951 12.7228 0.80087 12.4539 0.689108C12.185 0.577382 11.8764 0.704718 11.7646 0.973698L11.0678 2.65023C10.9561 2.91921 11.0835 3.22785 11.3524 3.33961Z" fill="#55717C"/>
<path d="M17.0263 11.7645L15.3497 11.0678C15.0807 10.956 14.7721 11.0834 14.6604 11.3524C14.5486 11.6213 14.676 11.9299 14.945 12.0417L16.6215 12.7384C16.6877 12.7659 16.7562 12.7789 16.8237 12.7789C17.0304 12.7789 17.2266 12.6566 17.3108 12.4538C17.4226 12.1849 17.2952 11.8763 17.0263 11.7645Z" fill="#55717C"/>
<path d="M6.64765 14.6604C6.37867 14.5487 6.07007 14.676 5.95831 14.945L5.26158 16.6215C5.14982 16.8905 5.27723 17.1991 5.54617 17.3109C5.61237 17.3384 5.68089 17.3514 5.74836 17.3514C5.95504 17.3514 6.15125 17.2291 6.23552 17.0263L6.93224 15.3497C7.04397 15.0808 6.91656 14.7722 6.64765 14.6604Z" fill="#55717C"/>
<path d="M0.973724 6.23539L2.65025 6.93212C2.71645 6.95961 2.78497 6.97262 2.85244 6.97262C3.05912 6.97262 3.25533 6.85031 3.3396 6.6475C3.45136 6.37855 3.32395 6.06991 3.05501 5.95815L1.37848 5.26146C1.10953 5.14977 0.800895 5.27711 0.689134 5.54605C0.577372 5.815 0.704778 6.12363 0.973724 6.23539Z" fill="#55717C"/>
<path d="M14.6659 6.66092C14.7499 6.8643 14.9464 6.98717 15.1535 6.98717C15.2206 6.98717 15.2888 6.9743 15.3546 6.94713L17.0327 6.2543C17.3019 6.14317 17.4301 5.83485 17.319 5.56563C17.2078 5.2964 16.8994 5.16829 16.6303 5.27942L14.9521 5.97225C14.6829 6.08341 14.5548 6.39173 14.6659 6.66092Z" fill="#55717C"/>
<path d="M12.0278 14.9521C11.9166 14.6828 11.6083 14.5548 11.3391 14.6659C11.0699 14.777 10.9417 15.0853 11.0529 15.3545L11.7457 17.0327C11.8297 17.2361 12.0262 17.359 12.2333 17.359C12.3004 17.359 12.3685 17.3461 12.4344 17.3189C12.7036 17.2078 12.8317 16.8994 12.7206 16.6302L12.0278 14.9521Z" fill="#55717C"/>
<path d="M3.33412 11.3391C3.223 11.0699 2.91475 10.9417 2.64545 11.0529L0.967265 11.7457C0.698074 11.8569 0.569894 12.1652 0.681023 12.4344C0.765011 12.6378 0.9615 12.7606 1.16868 12.7606C1.23568 12.7606 1.30389 12.7478 1.3697 12.7206L3.04788 12.0278C3.31711 11.9166 3.44525 11.6083 3.33412 11.3391Z" fill="#55717C"/>
<path d="M5.97224 3.04795C6.05623 3.25133 6.25275 3.3742 6.45989 3.3742C6.52694 3.3742 6.5951 3.36134 6.66092 3.33416C6.93014 3.22303 7.05829 2.91471 6.94716 2.64549L6.25433 0.967301C6.14317 0.698075 5.83478 0.569965 5.56566 0.681094C5.29643 0.792223 5.16829 1.10058 5.27942 1.36977L5.97224 3.04795Z" fill="#55717C"/>
</svg>
