<svg width="16" height="18" viewBox="0 0 16 18" fill="none" xmlns="http://www.w3.org/2000/svg">
<path d="M15.8505 10.4881L15.2285 9.21594C15.1615 9.0787 15.1615 8.92123 15.2285 8.78399L15.8505 7.51174C16.1967 6.80336 15.9224 5.95904 15.2259 5.58946L13.975 4.9258C13.84 4.85418 13.7475 4.72681 13.7211 4.57638L13.4764 3.18157C13.3402 2.40493 12.6218 1.88326 11.8413 1.99353L10.4391 2.19187C10.2879 2.2134 10.1382 2.16461 10.0284 2.05838L9.01059 1.07382C8.44388 0.525512 7.55608 0.525545 6.98944 1.07379L5.97163 2.05838C5.86181 2.16458 5.71213 2.21327 5.56086 2.19187L4.15872 1.99353C3.37827 1.88336 2.65979 2.40496 2.52356 3.18157L2.27891 4.57638C2.25253 4.72684 2.15998 4.85421 2.02505 4.9258L0.774122 5.58953C0.0775966 5.95904 -0.196754 6.80339 0.149539 7.5118L0.771451 8.78399C0.838541 8.92123 0.838541 9.0787 0.771451 9.21594L0.149539 10.4882C-0.196721 11.1966 0.0776292 12.0409 0.774122 12.4105L2.02501 13.0741C2.15998 13.1458 2.25253 13.2731 2.27891 13.4236L2.52356 14.8184C2.65979 15.595 3.3782 16.1166 4.15872 16.0064L5.56086 15.8081C5.7122 15.7867 5.86185 15.8354 5.97163 15.9416L6.98941 16.9261C7.27281 17.2003 7.63633 17.3374 7.99998 17.3373C8.36357 17.3373 8.72728 17.2003 9.01056 16.9262L10.0284 15.9416C10.1382 15.8354 10.2878 15.7867 10.4391 15.8081L11.8413 16.0064C11.9114 16.0163 11.9808 16.0212 12.0495 16.0212C12.7461 16.0211 13.3524 15.5253 13.4765 14.8184L13.7211 13.4236C13.7475 13.2732 13.8401 13.1458 13.975 13.0742L15.2259 12.4105C15.9224 12.0409 16.1968 11.1965 15.8505 10.4881ZM6.23677 10.9234C6.23677 11.1464 6.08344 11.3401 5.86637 11.3914C5.82951 11.4001 5.79241 11.4043 5.75577 11.4043C5.57681 11.4043 5.40857 11.304 5.32578 11.1384L4.31332 9.11345V10.9234C4.31332 11.189 4.09801 11.4043 3.83246 11.4043C3.5669 11.4043 3.35159 11.189 3.35159 10.9234V7.07647C3.35159 6.85345 3.50492 6.65973 3.72199 6.60847C3.93898 6.55718 4.16286 6.66198 4.26258 6.86143L5.27504 8.88642V7.07647C5.27504 6.81091 5.49035 6.59561 5.7559 6.59561C6.02146 6.59561 6.23677 6.81091 6.23677 7.07647V10.9234ZM8.64108 8.51906C8.90663 8.51906 9.12194 8.73436 9.12194 8.99992C9.12194 9.26547 8.90663 9.48078 8.64108 9.48078H7.51905V10.4425H8.96164C9.2272 10.4425 9.4425 10.6578 9.4425 10.9234C9.4425 11.1889 9.2272 11.4042 8.96164 11.4042H7.03819C6.77263 11.4042 6.55733 11.1889 6.55733 10.9234V7.07647C6.55733 6.81091 6.77263 6.59561 7.03819 6.59561H8.96164C9.2272 6.59561 9.4425 6.81091 9.4425 7.07647C9.4425 7.34203 9.2272 7.55733 8.96164 7.55733H7.51905V8.51906H8.64108ZM12.6483 10.9234C12.6483 11.1464 12.4949 11.3401 12.2779 11.3914C12.241 11.4001 12.2039 11.4043 12.1673 11.4043C11.9883 11.4043 11.8201 11.304 11.7373 11.1384L11.2057 10.0752L10.6741 11.1384C10.5744 11.338 10.3506 11.4426 10.1335 11.3914C9.91643 11.3401 9.7631 11.1464 9.7631 10.9234V7.07647C9.7631 6.81091 9.9784 6.59561 10.244 6.59561C10.5095 6.59561 10.7248 6.81091 10.7248 7.07647V8.88642L10.7756 8.78491C10.857 8.622 11.0235 8.51909 11.2057 8.51909C11.3878 8.51909 11.5543 8.622 11.6358 8.78491L11.6865 8.88642V7.07647C11.6865 6.81091 11.9019 6.59561 12.1674 6.59561C12.433 6.59561 12.6483 6.81091 12.6483 7.07647V10.9234Z" fill="#55717C"/>
</svg>
