<svg width="16" height="16" viewBox="0 0 16 16" fill="none" xmlns="http://www.w3.org/2000/svg">
<path d="M15.4286 4.00001H12.5714V0.571439C12.5714 0.255837 12.3156 0 12 0H0.571439C0.255837 0 0 0.255837 0 0.571439V13.7143C0 14.9767 1.02335 16 2.28572 16H13.7143C14.9767 16 16 14.9767 16 13.7143V4.57141C16 4.25585 15.7442 4.00001 15.4286 4.00001ZM4.57141 2.85713H7.99998C8.31559 2.85713 8.57142 3.11297 8.57142 3.42857C8.57142 3.74417 8.31559 4.00001 7.99998 4.00001H4.57141C4.25581 4.00001 3.99997 3.74417 3.99997 3.42857C3.99997 3.11297 4.25585 2.85713 4.57141 2.85713ZM9.71427 13.7143H2.85713C2.54153 13.7143 2.28569 13.4584 2.28569 13.1428C2.28569 12.8272 2.54153 12.5714 2.85713 12.5714H9.71427C10.0299 12.5714 10.2857 12.8272 10.2857 13.1428C10.2857 13.4584 10.0299 13.7143 9.71427 13.7143ZM9.71427 11.4286H2.85713C2.54153 11.4286 2.28569 11.1727 2.28569 10.8571C2.28569 10.5415 2.54153 10.2857 2.85713 10.2857H9.71427C10.0299 10.2857 10.2857 10.5415 10.2857 10.8571C10.2857 11.1727 10.0299 11.4286 9.71427 11.4286ZM9.71427 9.14286H2.85713C2.54153 9.14286 2.28569 8.88702 2.28569 8.57142C2.28569 8.25582 2.54153 7.99998 2.85713 7.99998H9.71427C10.0299 7.99998 10.2857 8.25582 10.2857 8.57142C10.2857 8.88702 10.0299 9.14286 9.71427 9.14286ZM9.71427 6.85714H2.85713C2.54153 6.85714 2.28569 6.6013 2.28569 6.2857C2.28569 5.9701 2.54153 5.71426 2.85713 5.71426H9.71427C10.0299 5.71426 10.2857 5.9701 10.2857 6.2857C10.2857 6.6013 10.0299 6.85714 9.71427 6.85714ZM14.8571 13.7143C14.8571 14.3454 14.3454 14.8571 13.7143 14.8571C13.0831 14.8571 12.5714 14.3454 12.5714 13.7143V5.14285H14.8572V13.7143H14.8571Z" fill="#55717C"/>
</svg>
