<svg width="13" height="18" viewBox="0 0 13 18" fill="none" xmlns="http://www.w3.org/2000/svg">
<path fill-rule="evenodd" clip-rule="evenodd" d="M12.6022 10.466C11.2202 11.8116 9.40674 12.6602 7.46087 12.8719L10.7568 16.0797C10.9739 16.2908 11.0958 16.5768 11.0958 16.875C11.0958 17.1733 10.9739 17.4593 10.7568 17.6704C10.6496 17.7749 10.5223 17.8578 10.3821 17.9143C10.2418 17.9709 10.0914 18 9.93955 18C9.78767 18 9.63729 17.9709 9.49705 17.9143C9.3568 17.8578 9.22948 17.7749 9.12236 17.6704L6.47185 15.0913L3.81998 17.6704C3.60037 17.8702 3.30922 17.9791 3.00822 17.9742C2.70723 17.9692 2.42006 17.8508 2.20755 17.644C1.99504 17.4371 1.8739 17.1581 1.8698 16.8661C1.86569 16.5741 1.97894 16.292 2.18556 16.0797L5.48145 12.8719C3.53559 12.6602 1.72215 11.8116 0.340085 10.466C0.232324 10.3616 0.146839 10.2375 0.0884845 10.101C0.0301306 9.96453 6.29247e-05 9.81822 9.86776e-08 9.67044C-6.27273e-05 9.52266 0.029875 9.37632 0.0881129 9.23977C0.146351 9.10322 0.231752 8.97913 0.339424 8.87459C0.447097 8.77005 0.574923 8.68711 0.715638 8.6305C0.856353 8.5739 1.00719 8.54473 1.15953 8.54467C1.31186 8.54461 1.46271 8.57365 1.60348 8.63014C1.74424 8.68664 1.87216 8.76948 1.97992 8.87393C2.57044 9.44699 3.27155 9.90159 4.04322 10.2117C4.81488 10.5219 5.64199 10.6815 6.47726 10.6815C7.31254 10.6815 8.13962 10.5219 8.91129 10.2117C9.68295 9.90159 10.3841 9.44699 10.9746 8.87393C11.0796 8.75884 11.2078 8.66588 11.3513 8.60079C11.4949 8.5357 11.6506 8.49988 11.809 8.49552C11.9674 8.49116 12.125 8.51837 12.272 8.57546C12.4191 8.63255 12.5526 8.71831 12.6642 8.82743C12.7757 8.93656 12.863 9.06673 12.9206 9.20989C12.9783 9.35305 13.005 9.50616 12.9992 9.65975C12.9934 9.81333 12.9552 9.96413 12.8869 10.1028C12.8186 10.2415 12.7217 10.3651 12.6022 10.466ZM6.47185 8.99862C5.55396 9.00122 4.6559 8.73955 3.8914 8.24674C3.12689 7.75393 2.53032 7.05214 2.1772 6.23023C1.82408 5.40832 1.73031 4.50325 1.90774 3.6296C2.08517 2.75596 2.52584 1.95303 3.17394 1.32247C3.82204 0.691919 4.64843 0.262094 5.54849 0.08742C6.44855 -0.0872536 7.3818 0.00107945 8.23009 0.341233C9.07837 0.681387 9.80353 1.25806 10.3138 1.99826C10.824 2.73845 11.0964 3.60886 11.0964 4.4993C11.0971 5.69053 10.6105 6.83338 9.74349 7.67694C8.87645 8.5205 7.69982 8.99584 6.47185 8.99862ZM6.47185 2.24833C6.01291 2.24703 5.56388 2.37787 5.18162 2.62427C4.79937 2.87068 4.50109 3.22157 4.32453 3.63253C4.14797 4.04348 4.10108 4.49602 4.1898 4.93284C4.27851 5.36967 4.49885 5.77113 4.8229 6.08641C5.14695 6.40168 5.56014 6.6166 6.01017 6.70393C6.4602 6.79127 6.92682 6.74711 7.35096 6.57703C7.7751 6.40695 8.13769 6.11861 8.39281 5.74851C8.64793 5.37842 8.78411 4.94321 8.78411 4.49799C8.78447 3.90237 8.54118 3.33095 8.10766 2.90917C7.67414 2.48739 7.08584 2.24972 6.47185 2.24833Z" fill="#D96B2A"/>
</svg>
