<svg width="9" height="12" viewBox="0 0 9 12" fill="none" xmlns="http://www.w3.org/2000/svg">
<path fill-rule="evenodd" clip-rule="evenodd" d="M7.956 6.8111C7.08348 7.68677 5.93863 8.23901 4.71017 8.37678L6.79092 10.4644C6.92799 10.6018 7.00498 10.7879 7.00498 10.982C7.00498 11.1761 6.92799 11.3622 6.79092 11.4996C6.72329 11.5676 6.6429 11.6215 6.55436 11.6583C6.46582 11.6951 6.37088 11.7141 6.275 11.7141C6.17912 11.7141 6.08418 11.6951 5.99564 11.6583C5.9071 11.6215 5.82672 11.5676 5.75909 11.4996L4.08579 9.82117L2.41162 11.4996C2.27297 11.6296 2.08916 11.7005 1.89914 11.6973C1.70912 11.6941 1.52782 11.617 1.39366 11.4824C1.2595 11.3478 1.18302 11.1662 1.18043 10.9762C1.17784 10.7861 1.24934 10.6026 1.37978 10.4644L3.46053 8.37678C2.23207 8.23901 1.08722 7.68677 0.214701 6.8111C0.14667 6.74312 0.0927015 6.66241 0.0558617 6.57358C0.0190219 6.48474 3.97254e-05 6.38952 6.22968e-08 6.29335C-3.96008e-05 6.19718 0.0188606 6.10194 0.0556271 6.01308C0.0923936 5.92421 0.146309 5.84346 0.214284 5.77542C0.282259 5.70739 0.362958 5.65342 0.451794 5.61658C0.540629 5.57974 0.635856 5.56076 0.732027 5.56072C0.828199 5.56068 0.923434 5.57958 1.0123 5.61634C1.10117 5.65311 1.18192 5.70702 1.24995 5.77499C1.62276 6.14793 2.06538 6.44378 2.55255 6.64562C3.03971 6.84746 3.56188 6.95135 4.0892 6.95135C4.61652 6.95135 5.13867 6.84746 5.62584 6.64562C6.113 6.44378 6.55563 6.14793 6.92843 5.77499C6.99473 5.7001 7.07568 5.6396 7.16628 5.59724C7.25689 5.55488 7.35523 5.53157 7.45521 5.52873C7.55519 5.5259 7.65468 5.5436 7.74754 5.58076C7.8404 5.61791 7.92465 5.67372 7.99508 5.74474C8.06551 5.81575 8.12063 5.90047 8.15701 5.99363C8.1934 6.0868 8.21028 6.18644 8.20662 6.28639C8.20295 6.38634 8.17882 6.48448 8.13572 6.57473C8.09261 6.66498 8.03144 6.74543 7.956 6.8111ZM4.08579 5.85614C3.50631 5.85783 2.93934 5.68754 2.4567 5.36683C1.97406 5.04612 1.59743 4.58941 1.3745 4.05452C1.15157 3.51964 1.09237 2.93063 1.20439 2.36208C1.3164 1.79353 1.5946 1.271 2.00376 0.860642C2.41292 0.450289 2.93463 0.170566 3.50285 0.0568914C4.07107 -0.0567831 4.66025 0.000702486 5.19579 0.222068C5.73132 0.443434 6.18912 0.818726 6.51124 1.30043C6.83336 1.78213 7.00532 2.34858 7.00532 2.92806C7.00577 3.7033 6.69859 4.44704 6.15122 4.99601C5.60385 5.54499 4.86102 5.85433 4.08579 5.85614ZM4.08579 1.46318C3.79605 1.46233 3.51256 1.54747 3.27124 1.70783C3.02992 1.86819 2.84161 2.09654 2.73014 2.36398C2.61868 2.63143 2.58908 2.92593 2.64509 3.21021C2.70109 3.49448 2.84019 3.75575 3.04477 3.96092C3.24935 4.1661 3.51021 4.30596 3.79432 4.3628C4.07843 4.41964 4.37301 4.3909 4.64078 4.28021C4.90855 4.16953 5.13745 3.98188 5.29852 3.74103C5.45958 3.50018 5.54555 3.21695 5.54555 2.92721C5.54578 2.53959 5.39218 2.16773 5.1185 1.89324C4.84481 1.61875 4.4734 1.46408 4.08579 1.46318Z" fill="white"/>
</svg>
