<svg width="34" height="34" viewBox="0 0 34 34" fill="none" xmlns="http://www.w3.org/2000/svg">
<mask id="mask0" mask-type="alpha" maskUnits="userSpaceOnUse" x="0" y="0" width="34" height="34">
<path d="M17 34C26.3888 34 34 26.3888 34 17C34 7.61116 26.3888 0 17 0C7.61116 0 0 7.61116 0 17C0 26.3888 7.61116 34 17 34Z" fill="#A6B5BB"/>
</mask>
<g mask="url(#mask0)">
<path d="M17 34C26.3888 34 34 26.3888 34 17C34 7.61116 26.3888 0 17 0C7.61116 0 0 7.61116 0 17C0 26.3888 7.61116 34 17 34Z" fill="#3F768D"/>
<path d="M29 31.3443C28.8476 26.0105 22.9596 25.571 20.8445 24.6721C18.7294 23.7731 19.6059 21.0763 21.1684 19.1585C23.0549 17.5004 22.6357 15.7225 22.3689 15.5028C22.1021 15.283 21.9878 14.6038 22.2736 13.7848C22.5595 12.9657 22.4261 8.67075 18.0244 8.09143C13.6227 7.5121 12.2889 9.8294 11.4314 11.008C10.5739 12.1866 11.3552 14.1643 10.9931 15.4428C10.6502 16.7413 10.7835 17.9399 11.7172 18.4593C12.6509 18.9787 12.8796 20.8166 13.1845 21.4758C13.5084 22.115 14.7088 24.5123 9.41159 26.2302C4.11433 27.9482 4.03811 31.2843 4.03811 31.2843L4 31.8437V35H29V31.3443Z" fill="#5D9BB5"/>
</g>
</svg>
