<svg width="18" height="16" viewBox="0 0 18 16" fill="none" xmlns="http://www.w3.org/2000/svg">
<path d="M12.0369 8.54064C11.2269 7.27708 9.84746 6.5226 8.34674 6.5226C6.84601 6.5226 5.46654 7.27708 4.65672 8.54064L2.70501 11.5854C2.38119 12.0904 2.23177 12.6741 2.27283 13.2727C2.31389 13.8715 2.54172 14.429 2.9316 14.8855C3.32175 15.3416 3.83728 15.6533 4.42244 15.7871C5.00759 15.9208 5.60744 15.8637 6.15703 15.6221L6.19384 15.6058C7.57673 15.01 9.15697 15.0155 10.5363 15.6221C10.8921 15.7785 11.2691 15.8576 11.6495 15.8576C11.8563 15.8576 12.0644 15.8342 12.2705 15.7872C12.8556 15.6536 13.3712 15.3418 13.7615 14.8856C14.1515 14.4296 14.3794 13.8719 14.4206 13.273C14.4618 12.6741 14.3124 12.0906 13.9886 11.5852L12.0369 8.54064Z" fill="#55717C"/>
<path d="M3.23073 8.53652C3.81135 8.3135 4.25245 7.84562 4.47273 7.21899C4.68243 6.62271 4.66526 5.94952 4.42425 5.3233C4.1831 4.6975 3.74447 4.18663 3.18912 3.88465C2.60575 3.56756 1.96483 3.51592 1.38517 3.73935C0.218977 4.18773 -0.316192 5.62886 0.192336 6.95257C0.598553 8.00615 1.54598 8.67124 2.50385 8.67124C2.74843 8.67124 2.9937 8.62784 3.23073 8.53652Z" fill="#55717C"/>
<path d="M7.01767 6.15126C8.47555 6.15126 9.66166 4.79995 9.66166 3.13896C9.66166 1.47756 8.47555 0.125977 7.01767 0.125977C5.55993 0.125977 4.37396 1.47756 4.37396 3.13896C4.37396 4.79995 5.55993 6.15126 7.01767 6.15126Z" fill="#55717C"/>
<path d="M11.5839 6.89125H11.584C11.8083 6.96568 12.0371 7.00125 12.2649 7.00125C13.3281 7.00125 14.3643 6.2274 14.7596 5.03814C14.9873 4.35355 14.9723 3.6297 14.7175 3.00005C14.4508 2.34087 13.9565 1.86242 13.3256 1.65272C12.6946 1.44302 12.0122 1.53049 11.404 1.89881C10.823 2.25064 10.3777 2.82152 10.1503 3.5061C9.67036 4.95025 10.3135 6.46882 11.5839 6.89125Z" fill="#55717C"/>
<path d="M17.1519 6.53965L17.1515 6.53924C16.1461 5.79657 14.6425 6.11847 13.7994 7.25719C12.9572 8.39647 13.0889 9.92809 14.0927 10.6713C14.4589 10.9425 14.8914 11.0722 15.3342 11.0722C16.1058 11.0722 16.9087 10.6783 17.4453 9.95405C18.2874 8.81477 18.1559 7.28315 17.1519 6.53965Z" fill="#55717C"/>
</svg>
