<svg width="16" height="21" viewBox="0 0 16 21" fill="none" xmlns="http://www.w3.org/2000/svg">
<path d="M12.2794 5.45331C12.1364 5.21699 11.8537 5.10468 11.5875 5.17886C11.3216 5.25304 11.1375 5.49545 11.1375 5.7715C11.1375 6.52244 10.5266 7.13319 9.7758 7.13319C9.02502 7.13319 8.41412 6.52244 8.41412 5.7715V0.61523C8.41412 0.366413 8.26415 0.142108 8.03424 0.0469394C7.80433 -0.0483899 7.53981 0.00416133 7.36389 0.18024C7.29468 0.249294 5.65421 1.89953 3.99212 4.39267C3.01191 5.86283 2.22973 7.32112 1.66737 8.72703C0.95504 10.5082 0.59375 12.2132 0.59375 13.795C0.59375 17.7678 3.82597 21 7.79888 21C11.7716 21 15.0039 17.7678 15.0039 13.795C15.004 11.2519 14.0872 8.44537 12.2794 5.45331ZM11.9041 13.635C11.9041 13.9748 11.6287 14.2502 11.2889 14.2502C10.9492 14.2502 10.6737 13.9748 10.6737 13.635V12.4844L7.61031 15.548C7.49479 15.6633 7.33842 15.728 7.17516 15.728C7.01205 15.728 6.85552 15.6633 6.74017 15.548L5.31135 14.119L4.34844 15.0819C4.10812 15.3222 3.71863 15.3222 3.4783 15.0819C3.23798 14.8416 3.23798 14.4521 3.4783 14.2118L4.87636 12.8139C5.11668 12.5737 5.50617 12.5737 5.7465 12.814L7.17516 14.2428L9.80368 11.6143H8.653C8.31318 11.6143 8.03777 11.3389 8.03777 10.9991C8.03777 10.6593 8.31318 10.3838 8.653 10.3838H11.2891C11.6287 10.3838 11.9043 10.6594 11.9043 10.9991V13.635H11.9041Z" fill="#55717C"/>
</svg>
