<svg width="15" height="22" viewBox="0 0 15 22" fill="none" xmlns="http://www.w3.org/2000/svg">
<path d="M2.57812 12.2891C2.57812 11.4476 2.04059 10.708 1.24124 10.4493C1.20875 10.4388 1.17524 10.4368 1.1425 10.4281C0.814558 10.892 0.474504 11.3822 0.108281 11.9316C0.0377694 12.0374 0 12.162 0 12.2891C0 13.0082 0.0901053 13.6403 0.264043 14.1862C0.677832 14.2649 1.08788 14.2189 1.46592 14.0408C2.1413 13.723 2.57812 13.0356 2.57812 12.2891Z" fill="#55717C"/>
<path d="M11.6016 3.97538V0.644531C11.6016 0.288277 11.3133 0 10.9571 0H7.08988C6.73362 0 6.44535 0.288277 6.44535 0.644531V2.60709C6.44535 4.06545 6.20554 4.36648 5.05178 5.60648C4.319 6.39474 3.31095 7.48533 1.92864 9.34274C3.09697 9.85059 3.86722 10.993 3.86722 12.2891C3.86722 13.8066 2.76658 15.2955 0.974609 15.4761C0.983977 15.4866 0.990121 15.5007 0.999531 15.5111C1.67947 16.2588 2.60575 16.5477 3.6764 16.4726C3.67575 16.4743 3.67563 16.4763 3.67498 16.478C5.26147 16.327 6.44535 15.2248 6.44535 14.8672C6.44535 14.5109 6.73362 14.2227 7.08988 14.2227C7.44613 14.2227 7.73441 14.5109 7.73441 14.8672C7.73441 15.4431 7.35676 16.06 6.67068 16.6038C5.86188 17.2445 4.61561 17.7883 3.3901 17.7883C3.37308 17.7883 3.35667 17.7829 3.33965 17.7827C3.14612 19.0733 3.34107 20.4556 3.93516 21.6437C4.04473 21.8622 4.26752 22 4.51175 22H10.4928C10.3875 21.5833 9.02347 18.4555 9.02347 13.3692V12.2891C9.02347 11.9328 9.31175 11.6445 9.668 11.6445C10.0243 11.6445 10.3125 11.9328 10.3125 12.2891V13.3692C10.3125 18.0163 11.7611 21.6515 11.8512 22H13.5352C13.8914 22 14.1797 21.7117 14.1797 21.3555V7.13281C14.1797 5.57666 13.0707 4.27483 11.6016 3.97538Z" fill="#55717C"/>
</svg>
