<svg width="16" height="8" viewBox="0 0 16 8" fill="none" xmlns="http://www.w3.org/2000/svg">
<path d="M12.8889 3.55556C12.7307 3.55556 12.5751 3.57244 12.4258 3.60444C12.2258 1.584 10.5164 0 8.44444 0C8.19911 0 8 0.199111 8 0.444444V7.55556C8 7.80089 8.19911 8 8.44444 8H12.8889C14.1147 8 15.1111 7.00356 15.1111 5.77778C15.1111 4.55289 14.1147 3.55556 12.8889 3.55556Z" fill="white"/>
<path d="M6.66661 0.888672C6.42128 0.888672 6.22217 1.08778 6.22217 1.33312V7.55534C6.22217 7.80067 6.42128 7.99978 6.66661 7.99978C6.91195 7.99978 7.11106 7.80067 7.11106 7.55534V1.33312C7.11106 1.08778 6.91195 0.888672 6.66661 0.888672Z" fill="white"/>
<path d="M4.8889 2.6665C4.64357 2.6665 4.44446 2.86562 4.44446 3.11095V7.55539C4.44446 7.80073 4.64357 7.99984 4.8889 7.99984C5.13424 7.99984 5.33335 7.80073 5.33335 7.55539V3.11095C5.33335 2.86562 5.13424 2.6665 4.8889 2.6665Z" fill="white"/>
<path d="M3.11107 2.6665C2.86574 2.6665 2.66663 2.86562 2.66663 3.11095V7.55539C2.66663 7.80073 2.86574 7.99984 3.11107 7.99984C3.3564 7.99984 3.55551 7.80073 3.55551 7.55539V3.11095C3.55551 2.86562 3.3564 2.6665 3.11107 2.6665Z" fill="white"/>
<path d="M1.33336 4C1.08803 4 0.888916 4.19911 0.888916 4.44444V7.11111C0.888916 7.35644 1.08803 7.55556 1.33336 7.55556C1.57869 7.55556 1.7778 7.35644 1.7778 7.11111V4.44444C1.7778 4.19911 1.57869 4 1.33336 4Z" fill="white"/>
</svg>
