<svg width="16" height="18" viewBox="0 0 16 18" fill="none" xmlns="http://www.w3.org/2000/svg">
<path d="M15.5973 13.4574L12.6741 8.86405C12.1827 8.51636 11.6368 8.25792 11.0458 8.12339C9.83243 7.84762 8.53653 8.08761 7.49506 8.78176L5.90504 9.84211C4.94699 10.4825 3.69589 10.6462 2.51393 10.1396L0.402546 13.4574C-0.676264 15.1525 0.53928 17.3674 2.54911 17.3674H13.4507C15.4599 17.3674 16.6766 15.1532 15.5973 13.4574ZM4.94709 15.3322C4.10538 15.3322 3.42066 14.6475 3.42066 13.8058C3.42066 12.9641 4.10538 12.2793 4.94709 12.2793C5.78879 12.2793 6.47351 12.9641 6.47351 13.8058C6.47351 14.6475 5.78879 15.3322 4.94709 15.3322ZM7.99994 14.3146C7.71894 14.3146 7.49113 14.0868 7.49113 13.8058C7.49113 13.5247 7.71894 13.297 7.99994 13.297C8.28094 13.297 8.50875 13.5247 8.50875 13.8058C8.50875 14.0868 8.2809 14.3146 7.99994 14.3146ZM10.0352 15.3322C9.75417 15.3322 9.52636 15.1044 9.52636 14.8234C9.52636 14.5423 9.75417 14.3146 10.0352 14.3146C10.3162 14.3146 10.544 14.5423 10.544 14.8234C10.544 15.1044 10.3161 15.3322 10.0352 15.3322ZM10.0352 13.297C9.19347 13.297 8.50875 12.6122 8.50875 11.7705C8.50875 10.9288 9.19347 10.2441 10.0352 10.2441C10.8769 10.2441 11.5616 10.9288 11.5616 11.7705C11.5616 12.6122 10.8769 13.297 10.0352 13.297ZM12.0704 14.3146C11.7894 14.3146 11.5616 14.0868 11.5616 13.8058C11.5616 13.5247 11.7894 13.297 12.0704 13.297C12.3514 13.297 12.5792 13.5247 12.5792 13.8058C12.5792 14.0868 12.3514 14.3146 12.0704 14.3146Z" fill="#55717C"/>
<path d="M10.0352 11.2616C9.75445 11.2616 9.52637 11.4897 9.52637 11.7704C9.52637 12.0511 9.75445 12.2792 10.0352 12.2792C10.3159 12.2792 10.544 12.0511 10.544 11.7704C10.544 11.4897 10.3159 11.2616 10.0352 11.2616Z" fill="#55717C"/>
<path d="M3.06903 9.26734C3.83672 9.54141 4.66204 9.44759 5.34011 8.99536L6.93065 7.935C8.25362 7.05266 9.96196 6.73259 11.6373 7.23465L10.544 5.51667V3.05285C11.3857 3.05285 12.0704 2.36813 12.0704 1.52643C12.0704 0.684721 11.3857 0 10.544 0H5.45592C4.61421 0 3.92949 0.684721 3.92949 1.52643C3.92949 2.36813 4.61421 3.05285 5.45592 3.05285V5.51667L3.06903 9.26734Z" fill="#55717C"/>
<path d="M4.9471 13.2968C4.66638 13.2968 4.43829 13.5249 4.43829 13.8056C4.43829 14.0863 4.66638 14.3144 4.9471 14.3144C5.22783 14.3144 5.45591 14.0863 5.45591 13.8056C5.45591 13.5249 5.22783 13.2968 4.9471 13.2968Z" fill="#55717C"/>
</svg>
