<svg width="16" height="16" viewBox="0 0 16 16" fill="none" xmlns="http://www.w3.org/2000/svg">
<path d="M8 0C3.58177 0 0 3.58177 0 8C0 12.4182 3.58177 16 8 16C12.4182 16 16 12.4182 16 8C15.9951 3.58385 12.4161 0.00494793 8 0ZM8.28555 2.30638L11.0667 1.19466C11.3823 1.3375 11.6876 1.50208 11.9805 1.68724L11.9878 1.6918C12.2755 1.87409 12.5505 2.07578 12.8109 2.29544L12.8333 2.31497C12.9501 2.41445 13.0637 2.51745 13.1741 2.6237C13.188 2.63737 13.2026 2.65039 13.2165 2.66432C13.3323 2.77734 13.4444 2.89388 13.5529 3.0138C13.5618 3.02396 13.5704 3.03464 13.5794 3.04479C13.6746 3.15143 13.7661 3.26185 13.8549 3.37409C13.8763 3.40078 13.8977 3.42747 13.9184 3.45417C14.0147 3.57891 14.1079 3.70586 14.196 3.83685L13.6415 6.19362L10.9138 7.103L8.2862 5.00052L8.28555 2.30638ZM2.08138 3.45573C2.10208 3.42904 2.12318 3.40234 2.14453 3.37578C2.23229 3.26445 2.32305 3.15586 2.4168 3.04987C2.42695 3.03867 2.43633 3.02721 2.44635 3.01602C2.55417 2.89583 2.66576 2.77943 2.78138 2.66667C2.79466 2.65365 2.80794 2.63997 2.82188 2.628C2.93138 2.5224 3.04401 2.42005 3.15977 2.32109L3.18646 2.2987C3.44453 2.0806 3.71693 1.88021 4.00182 1.6987L4.01224 1.69206C4.30339 1.50729 4.60677 1.34297 4.92057 1.2L7.71445 2.30638V4.99974L5.08672 7.10182L2.35898 6.19414L1.80456 3.83737C1.89336 3.70664 1.98555 3.57995 2.08138 3.45573ZM1.76003 12.0921C1.68164 11.9725 1.60664 11.8508 1.53516 11.7267L1.51784 11.6967C1.44674 11.5733 1.37943 11.4478 1.31602 11.3203L1.3138 11.3163C1.18021 11.048 1.06289 10.772 0.96263 10.4896V10.487C0.915234 10.3536 0.872005 10.2171 0.832031 10.0797L0.817578 10.029C0.78099 9.9 0.747787 9.76953 0.718099 9.63763C0.715495 9.62474 0.71224 9.6125 0.709635 9.59974C0.644141 9.30182 0.597135 9.00026 0.56875 8.69648L2.19674 6.74297L4.9056 7.64583L5.6918 10.7904L4.4 12.5091L1.76003 12.0921ZM9.77578 15.2514C9.64245 15.2845 9.5056 15.313 9.36875 15.3387C9.34961 15.3424 9.33008 15.3456 9.31094 15.3491C9.1944 15.3699 9.07656 15.3878 8.95846 15.4023C8.92695 15.4064 8.8957 15.4107 8.86432 15.4145C8.75469 15.4272 8.64401 15.4368 8.53307 15.4448C8.49818 15.4471 8.46367 15.4507 8.42878 15.4529C8.28698 15.4616 8.14401 15.4667 8 15.4667C7.8681 15.4667 7.73698 15.4632 7.60664 15.4563C7.59089 15.4563 7.57578 15.4536 7.56003 15.4525C7.44401 15.4458 7.32852 15.4371 7.21328 15.4259L7.2 15.4234C6.94753 15.3961 6.69648 15.356 6.44805 15.3035L4.8707 12.8339L6.14219 11.1384H9.85781L11.1501 12.8451L9.77578 15.2514ZM15.2923 9.6C15.2896 9.61276 15.2865 9.62513 15.2837 9.63789C15.2539 9.76966 15.2207 9.90013 15.1842 10.0293L15.1699 10.0799C15.1298 10.2173 15.0867 10.3534 15.0392 10.4872V10.4898C14.9389 10.7723 14.8217 11.0483 14.688 11.3165L14.6858 11.3206C14.622 11.4482 14.5548 11.5737 14.484 11.697L14.4667 11.727C14.3956 11.8514 14.3207 11.9729 14.2422 12.0918L11.6112 12.5066L10.3104 10.7893L11.0962 7.64557L13.8051 6.74271L15.4331 8.69622C15.4048 9.00013 15.3578 9.30195 15.2923 9.6Z" fill="#55717C"/>
</svg>
