<svg width="16" height="18" viewBox="0 0 16 18" fill="none" xmlns="http://www.w3.org/2000/svg">
<path d="M1.14453 13.7461C1.14453 14.9094 2.09059 15.8555 3.25391 15.8555V18H4.83594V14.8008H5.89062V18H7.47266V14.8008H8.52734V18H10.1094V14.8008H11.1641V18H12.7461V15.8555C13.9094 15.8555 14.8555 14.9094 14.8555 13.7461C14.8555 13.3011 14.7124 12.8717 14.4523 12.5152C15.4075 11.1732 15.9102 9.6026 15.9102 7.94531C15.9102 3.58347 12.3618 0 8 0C3.63815 0 0.0898438 3.58347 0.0898438 7.94531C0.0898438 9.6026 0.592468 11.1732 1.54773 12.5152C1.28763 12.8717 1.14453 13.3011 1.14453 13.7461ZM9.67061 13.5113L8.61592 11.9292L9.49345 11.3442L10.5481 12.9262L9.67061 13.5113ZM13.4609 6.61198L13.6412 7.10747C14.1393 8.47403 13.4374 9.98753 12.0654 10.4862C10.6989 10.984 9.1857 10.2836 8.68596 8.91032L8.50523 8.41498L13.4609 6.61198ZM6.32939 13.5113L5.45186 12.9262L6.50655 11.3442L7.38408 11.9292L6.32939 13.5113ZM2.3588 7.10747L2.53911 6.61198L7.49477 8.41498L7.31404 8.91032C6.81471 10.2822 5.30231 10.9844 3.93465 10.4862C2.56767 9.98946 1.85892 8.47911 2.3588 7.10747Z" fill="#55717C"/>
</svg>
