<svg width="14" height="10" viewBox="0 0 14 10" fill="none" xmlns="http://www.w3.org/2000/svg">
<path d="M13.1557 1.18316C12.7026 1.38394 12.2164 1.52011 11.7056 1.5809C12.2272 1.26856 12.6264 0.773139 12.8157 0.184625C12.3264 0.473873 11.7864 0.683904 11.2109 0.797761C10.7501 0.306186 10.0947 0 9.36768 0C7.97296 0 6.8421 1.13086 6.8421 2.52482C6.8421 2.72252 6.86441 2.91562 6.90749 3.10026C4.80887 2.99485 2.94796 1.98939 1.70247 0.461562C1.48476 0.833909 1.3609 1.26777 1.3609 1.7309C1.3609 2.60714 1.8071 3.38028 2.48408 3.8326C2.07019 3.81876 1.68093 3.70491 1.34014 3.51566V3.5472C1.34014 4.77037 2.21099 5.79122 3.36569 6.02356C3.15413 6.08049 2.93104 6.11203 2.70025 6.11203C2.53717 6.11203 2.37946 6.09588 2.22483 6.0651C2.54638 7.06903 3.47878 7.79908 4.58349 7.8191C3.71957 8.49608 2.63024 8.89842 1.44708 8.89842C1.24322 8.89842 1.04243 8.88611 0.844727 8.8638C1.96251 9.58156 3.28955 10.0001 4.71581 10.0001C9.36157 10.0001 11.901 6.15204 11.901 2.81485L11.8925 2.48791C12.3887 2.13401 12.818 1.68936 13.1557 1.18316Z" fill="white"/>
</svg>
