<svg width="20" height="11" viewBox="0 0 20 11" fill="none" xmlns="http://www.w3.org/2000/svg">
<path fill-rule="evenodd" clip-rule="evenodd" d="M17.2129 6.9943C17.8763 7.62381 18.5765 8.21609 19.1715 8.90908C19.4344 9.21704 19.6832 9.53483 19.8736 9.89221C20.1433 10.4003 19.899 10.9593 19.4303 10.9897L16.5166 10.9884C15.7652 11.049 15.1657 10.755 14.6616 10.2556C14.2582 9.85626 13.8846 9.43124 13.4967 9.01842C13.3377 8.84969 13.1713 8.69092 12.9724 8.56543C12.5747 8.31451 12.2294 8.39134 12.0021 8.79451C11.7706 9.20458 11.7181 9.65866 11.6954 10.1157C11.6642 10.7825 11.4568 10.9578 10.7676 10.9883C9.29473 11.0558 7.89691 10.8393 6.59838 10.1171C5.45355 9.48054 4.56579 8.58184 3.79308 7.56442C2.28861 5.58328 1.13649 3.40634 0.101007 1.1684C-0.132073 0.66419 0.0383836 0.393532 0.610798 0.383953C1.56132 0.366007 2.51171 0.367284 3.46334 0.382676C3.84966 0.388168 4.10541 0.603518 4.25458 0.958221C4.76884 2.18716 5.39809 3.35639 6.18794 4.44017C6.39829 4.72871 6.61277 5.01725 6.9182 5.22034C7.25609 5.44521 7.51335 5.37068 7.67231 5.00486C7.77317 4.77291 7.81733 4.52307 7.84007 4.27464C7.91537 3.41994 7.9253 2.56671 7.79321 1.71501C7.71213 1.18347 7.40407 0.83937 6.85834 0.738783C6.57985 0.6875 6.62131 0.586786 6.75615 0.432298C6.99035 0.165856 7.21062 0 7.6497 0H10.9426C11.461 0.0994369 11.5761 0.325772 11.6471 0.832728L11.6499 4.38761C11.6442 4.58387 11.7508 5.16625 12.1145 5.29615C12.4056 5.38862 12.5975 5.16229 12.7721 4.98289C13.5605 4.16964 14.1232 3.20855 14.6259 2.21335C14.849 1.77575 15.0408 1.32129 15.2267 0.867215C15.3644 0.530266 15.5806 0.364474 15.9711 0.371818L19.1403 0.374565C19.2343 0.374565 19.3294 0.375906 19.4204 0.391042C19.9544 0.479494 20.1007 0.702764 19.9358 1.20959C19.6759 2.00477 19.1703 2.66742 18.6759 3.33315C18.1473 4.04389 17.5821 4.73031 17.058 5.44527C16.5764 6.09816 16.6147 6.42725 17.2129 6.9943Z" fill="#5279A4"/>
</svg>
