<svg width="13" height="7" viewBox="0 0 13 7" fill="none" xmlns="http://www.w3.org/2000/svg">
<path fill-rule="evenodd" clip-rule="evenodd" d="M11.1884 4.45092C11.6196 4.85152 12.0747 5.22842 12.4615 5.66942C12.6323 5.86539 12.7941 6.06762 12.9178 6.29504C13.0932 6.61834 12.9344 6.97411 12.6297 6.99342L10.7358 6.99261C10.2474 7.03117 9.85769 6.84406 9.53004 6.52629C9.26782 6.27216 9.025 6.0017 8.77287 5.73899C8.66951 5.63162 8.56132 5.53059 8.43207 5.45073C8.17353 5.29105 7.94912 5.33994 7.80137 5.59651C7.6509 5.85746 7.61677 6.14642 7.60199 6.43725C7.5817 6.86158 7.4469 6.97314 6.99893 6.99257C6.04157 7.03552 5.13299 6.89771 4.28895 6.43818C3.54481 6.03307 2.96776 5.46117 2.4655 4.81372C1.4876 3.553 0.738719 2.16767 0.0656544 0.743527C-0.0858471 0.422666 0.0249493 0.25043 0.397019 0.244334C1.01486 0.232913 1.63261 0.233726 2.25117 0.243521C2.50228 0.247016 2.66852 0.384057 2.76547 0.609777C3.09974 1.39183 3.50876 2.13589 4.02216 2.82556C4.15889 3.00918 4.2983 3.1928 4.49683 3.32203C4.71646 3.46513 4.88368 3.4177 4.987 3.18491C5.05256 3.0373 5.08126 2.87832 5.09604 2.72022C5.14499 2.17632 5.15144 1.63336 5.06559 1.09137C5.01288 0.753118 4.81265 0.534144 4.45792 0.470135C4.2769 0.4375 4.30385 0.37341 4.3915 0.275099C4.54373 0.105545 4.6869 0 4.97231 0H7.11268C7.44964 0.063278 7.52447 0.20731 7.5706 0.529918L7.57243 2.79212C7.56876 2.91701 7.638 3.28761 7.87441 3.37028C8.06363 3.42912 8.18835 3.28509 8.30188 3.17093C8.81434 2.65341 9.18009 2.0418 9.50684 1.40849C9.65185 1.13002 9.77653 0.840821 9.89737 0.551864C9.98689 0.337442 10.1274 0.231938 10.3812 0.236612L12.4412 0.238359C12.5023 0.238359 12.5641 0.239213 12.6232 0.248845C12.9704 0.305133 13.0655 0.447213 12.9583 0.76974C12.7893 1.27576 12.4607 1.69745 12.1393 2.12109C11.7958 2.57339 11.4284 3.0102 11.0877 3.46517C10.7747 3.88064 10.7995 4.09007 11.1884 4.45092Z" fill="white"/>
</svg>
