<svg width="7" height="13" viewBox="0 0 7 13" fill="none" xmlns="http://www.w3.org/2000/svg">
<path d="M6.44403 0.634766H4.68723C2.90736 0.634766 1.11139 1.94908 1.11139 4.8854C1.11139 6.40635 1.75599 7.5909 2.93763 8.26458L0.774903 12.1792C0.67236 12.3643 0.669679 12.5741 0.767706 12.7404C0.863414 12.9028 1.03843 12.9998 1.23569 12.9998H2.32973C2.57827 12.9998 2.77205 12.8797 2.86498 12.6692L4.89278 8.70296H5.04077V12.5055C5.04077 12.7735 5.26689 12.9998 5.53455 12.9998H6.49028C6.79045 12.9998 7 12.7902 7 12.4901V1.17581C7.00005 0.857264 6.77144 0.634766 6.44403 0.634766ZM5.04077 6.94109H4.7797C3.76744 6.94109 3.16312 6.1148 3.16312 4.73076C3.16312 3.00982 3.92651 2.39666 4.64098 2.39666H5.04077V6.94109Z" fill="white"/>
</svg>
