<svg width="21" height="15" viewBox="0 0 21 15" fill="none" xmlns="http://www.w3.org/2000/svg">
<path d="M20.1479 2.25379C19.9108 1.37252 19.2159 0.677865 18.3348 0.440557C16.725 0 10.2857 0 10.2857 0C10.2857 0 3.84652 0 2.23669 0.423763C1.37252 0.660914 0.660757 1.37268 0.423606 2.25379C0 3.86347 0 7.20178 0 7.20178C0 7.20178 0 10.5569 0.423606 12.1498C0.660914 13.0309 1.35557 13.7257 2.23684 13.963C3.86347 14.4036 10.2858 14.4036 10.2858 14.4036C10.2858 14.4036 16.725 14.4036 18.3348 13.9798C19.2161 13.7426 19.9108 13.0478 20.1481 12.1667C20.5717 10.5569 20.5717 7.21873 20.5717 7.21873C20.5717 7.21873 20.5886 3.86347 20.1479 2.25379Z" fill="#2092C2"/>
<path d="M8.23535 9.42089C8.23535 9.80556 8.65157 10.0462 8.9849 9.85417L12.8378 7.63508C13.1717 7.44275 13.1717 6.96087 12.8378 6.76853L8.9849 4.54945C8.65157 4.35746 8.23535 4.59805 8.23535 4.98272V9.42089Z" fill="white"/>
</svg>
