<svg width="18" height="18" fill="none" xmlns="http://www.w3.org/2000/svg"><path d="M14.625 3.75a1.877 1.877 0 00-1.875 1.875c0 1.034.841 1.875 1.875 1.875h.234c-.485 1.993-2.243 3.572-4.49 4.2a1.89 1.89 0 00-.424-.646c1.596-.378 2.941-1.283 3.698-2.547a.375.375 0 00-.157-.53A2.607 2.607 0 0112 5.625c0-.81.377-1.564 1.033-2.07a.375.375 0 00.111-.454 28.432 28.432 0 01-.927-2.194l-.094-.261a.98.98 0 00-1.74-.209l-.793 1.19a7.2 7.2 0 00-2.68 0L6.117.436a.98.98 0 00-1.74.21l-.095.26c-.359.987-.815 1.962-1.256 2.905l-.4.863a4.059 4.059 0 00-.376 1.7c0 2.398 2.144 4.392 4.955 4.796a1.89 1.89 0 00-.37.676c-1.4-.254-2.691-.856-3.659-1.778a.376.376 0 00-.493-.02L.901 11.473A2.39 2.39 0 000 13.35c0 1.214.907 2.222 2.097 2.38A2.858 2.858 0 004.88 18c.563 0 1.107-.165 1.574-.477l1.006-.67a2.134 2.134 0 012.332 0l.955.637a3.03 3.03 0 001.685.51c.989 0 1.887-.46 2.465-1.262.577-.801.73-1.799.417-2.736l-.175-.524a2.683 2.683 0 01-.138-.85c0-.98.468-1.917 1.253-2.505l.397-.298a3.392 3.392 0 001.35-2.7 3.379 3.379 0 00-3.375-3.375zm-5.585.957c.049-.098.538-.957 2.585-.957a.375.375 0 110 .75c-1.562 0-1.919.55-1.922.556a.39.39 0 01-.33.185.364.364 0 01-.176-.046.368.368 0 01-.157-.488zM4.5 4.125c0-.207.168-.375.375-.375 2.048 0 2.536.86 2.585.957a.375.375 0 01-.664.348c-.02-.03-.396-.555-1.921-.555a.375.375 0 01-.375-.375zM9 13.431v-.306a.375.375 0 10-.75 0v.306a1.123 1.123 0 01.375-2.181c.62 0 1.125.505 1.125 1.125 0 .488-.314.9-.75 1.056zM9 8.25c-.29 0-.55-.113-.75-.293-.2.18-.46.293-.75.293-.62 0-1.125-.505-1.125-1.125a.375.375 0 11.75 0 .375.375 0 00.75 0 .375.375 0 11.75 0 .375.375 0 00.75 0 .375.375 0 11.75 0c0 .62-.505 1.125-1.125 1.125z" fill="#55717C"/></svg>