<svg width="20" height="16" fill="none" xmlns="http://www.w3.org/2000/svg"><path d="M17.765 5.904L16.482 1.63A2.272 2.272 0 0014.292 0H5.708a2.272 2.272 0 00-2.19 1.63L2.235 5.903A2.287 2.287 0 00.857 8v4.571c0 .632.512 1.143 1.143 1.143v1.143C2 15.488 2.512 16 3.143 16h1.143c.63 0 1.143-.512 1.143-1.143v-1.143h9.142v1.143c0 .631.512 1.143 1.143 1.143h1.143c.631 0 1.143-.512 1.143-1.143v-1.143c.631 0 1.143-.511 1.143-1.143V8c0-.938-.569-1.744-1.378-2.096zM5.708 2.286h8.584l1.029 3.428H4.679l1.029-3.428zm-.28 8.571a1.143 1.143 0 110-2.286 1.143 1.143 0 010 2.286zm9.143 0a1.143 1.143 0 110-2.286 1.143 1.143 0 010 2.286z" fill="#55717C"/></svg>