<svg width="20" height="14" fill="none" xmlns="http://www.w3.org/2000/svg"><path d="M4.923 0C3.58 0 2.327.749 1.395 2.108.495 3.421 0 5.158 0 7c0 1.842.495 3.58 1.395 4.892C2.327 13.252 3.58 14 4.923 14c1.344 0 2.596-.749 3.528-2.108.9-1.313 1.395-3.05 1.395-4.892 0-1.842-.495-3.58-1.395-4.892C7.52.748 6.267 0 4.923 0zM7.72 11.336c-.757 1.105-1.75 1.714-2.796 1.714-1.046 0-2.038-.609-2.796-1.714C1.337 10.184.903 8.644.903 7c0-1.644.434-3.184 1.224-4.336C2.885 1.56 3.877.95 4.923.95c1.046 0 2.039.609 2.796 1.714C8.51 3.816 8.944 5.356 8.944 7c0 1.644-.435 3.184-1.225 4.336z" fill="#55717C"/><path d="M4.923 4.625C3.677 4.625 2.667 5.688 2.667 7c0 .738.32 1.397.82 1.833a.38.38 0 01.009-.168c.08-.283.48-.407.895-.277.415.13.687.464.607.746a.403.403 0 01-.195.238c.04.002.08.004.12.004C6.17 9.376 7.18 8.312 7.18 7c0-1.312-1.01-2.375-2.257-2.375zm1.351 1.338c-.08.283-.48.407-.896.277-.415-.13-.687-.464-.607-.746.08-.283.48-.407.896-.278.415.13.687.464.607.747zm12.331-3.855C17.673.748 16.42 0 15.077 0c-1.344 0-2.597.749-3.528 2.108-.9 1.313-1.395 3.05-1.395 4.892 0 1.842.495 3.58 1.395 4.892.931 1.36 2.184 2.108 3.528 2.108 1.343 0 2.596-.749 3.528-2.108C19.505 10.579 20 8.842 20 7c0-1.842-.495-3.58-1.395-4.892zm-.732 9.228c-.758 1.105-1.75 1.714-2.796 1.714-1.046 0-2.039-.609-2.796-1.714-.79-1.152-1.225-2.692-1.225-4.336 0-1.644.435-3.184 1.225-4.336C13.038 1.56 14.03.95 15.077.95c1.045 0 2.038.609 2.796 1.714.79 1.152 1.224 2.692 1.224 4.336 0 1.644-.434 3.184-1.224 4.336z" fill="#55717C"/><path d="M15.077 4.625C13.83 4.625 12.82 5.688 12.82 7c0 .738.32 1.397.821 1.833a.384.384 0 01.008-.168c.08-.283.48-.407.896-.277.415.13.687.464.607.746a.403.403 0 01-.196.238c.04.002.08.004.12.004 1.247 0 2.257-1.064 2.257-2.376 0-1.312-1.01-2.375-2.256-2.375zm1.35 1.338c-.08.283-.48.407-.895.277-.415-.13-.687-.464-.607-.746.08-.283.48-.407.895-.278.415.13.687.464.608.747z" fill="#55717C"/></svg>