<svg width="18" height="18" fill="none" xmlns="http://www.w3.org/2000/svg"><path d="M2.846 12.581c.205-.17.317-.263.59-.263.274 0 .387.093.591.263.258.214.61.506 1.264.506s1.007-.292 1.264-.506c.205-.17.317-.263.59-.263.274 0 .387.093.591.263.258.214.61.506 1.264.506s1.007-.292 1.264-.506c.205-.17.317-.263.59-.263.274 0 .387.093.591.263.258.214.61.506 1.264.506s1.007-.292 1.264-.506c.205-.17.317-.263.59-.263.274 0 .387.093.591.263.242.201.569.472 1.151.503v1.025H1.695v-1.025c.582-.031.909-.302 1.151-.503zM13.4 6.848c-.211.175-.327.271-.61.271-.284 0-.4-.096-.611-.271-.262-.218-.62-.515-1.284-.515s-1.023.297-1.284.515c-.211.175-.327.271-.61.271-.284 0-.4-.096-.611-.271-.262-.218-.62-.515-1.284-.515s-1.023.297-1.284.515c-.211.175-.328.271-.61.271-.284 0-.4-.096-.611-.271-.252-.21-.595-.492-1.212-.513v-.312a1.76 1.76 0 011.303-1.698v-1.23c-.337-.323-.712-.802-.712-1.336C3.98.788 5.22 0 5.22 0s1.239.788 1.239 1.76c0 .533-.375 1.012-.712 1.334v1.171h2.726v-1.17c-.338-.323-.713-.802-.713-1.336C7.76.788 9 0 9 0s1.24.788 1.24 1.76c0 .533-.375 1.012-.713 1.334v1.171h2.726v-1.17c-.337-.323-.712-.802-.712-1.336 0-.971 1.24-1.759 1.24-1.759s1.24.788 1.24 1.76c0 .533-.376 1.012-.713 1.334v1.231a1.76 1.76 0 011.303 1.698v.312c-.617.021-.96.304-1.211.513zm2.428 4.922c-.258-.214-.61-.507-1.264-.507s-1.007.293-1.264.507c-.205.17-.318.263-.59.263-.274 0-.387-.094-.591-.263-.258-.214-.61-.507-1.264-.507s-1.007.293-1.264.507c-.205.17-.317.263-.59.263-.274 0-.387-.094-.591-.263-.258-.214-.61-.507-1.264-.507s-1.007.293-1.264.507c-.205.17-.317.263-.59.263-.274 0-.387-.094-.591-.263-.258-.214-.61-.507-1.264-.507s-1.007.293-1.264.507c-.174.144-.282.233-.478.256v-1.081a1.76 1.76 0 011.694-1.756V7.39c.232.016.346.11.538.27.262.217.62.514 1.284.514s1.022-.297 1.284-.515c.211-.175.327-.271.61-.271.284 0 .4.096.611.271.262.218.62.515 1.284.515s1.023-.297 1.284-.515c.211-.175.327-.271.61-.271.284 0 .4.096.611.271.262.218.62.515 1.284.515s1.023-.297 1.284-.515c.192-.159.306-.253.537-.269v1.8a1.76 1.76 0 011.695 1.756v1.081c-.196-.023-.303-.112-.477-.256zM18 15.164v1.054h-.83L16.64 18H1.36l-.53-1.782H0v-1.054h18z" fill="#55717C"/></svg>