<svg width="18" height="18" fill="none" xmlns="http://www.w3.org/2000/svg"><path d="M4.052 5.39h-2.64a8.342 8.342 0 00-.804 3.3h2.997c.018-1.115.168-2.222.447-3.3zM6.582.946A8.436 8.436 0 001.73 4.789h2.496C4.752 3.136 5.578 1.788 6.582.946zM4.052 12.59a14.12 14.12 0 01-.447-3.3H.608a8.342 8.342 0 00.804 3.3h2.64zm.174.6H1.73a8.436 8.436 0 004.852 3.843c-1.004-.842-1.83-2.19-2.356-3.844zm9.548-8.4h2.496A8.436 8.436 0 0011.418.945c1.004.842 1.83 2.19 2.356 3.843zm-.438.6H9.3v3.3h4.496a13.676 13.676 0 00-.46-3.3zM8.7 17.371V13.19H4.846c.784 2.366 2.207 4.003 3.854 4.182zM9.3.607V4.79h3.854C12.37 2.424 10.947.786 9.3.607zm4.496 8.683H9.3v3.3h4.036c.287-1.078.441-2.186.46-3.3zm-2.378 7.743a8.436 8.436 0 004.852-3.844h-2.496c-.526 1.654-1.352 3.002-2.356 3.844zm2.53-4.443h2.64a8.343 8.343 0 00.804-3.3h-2.997a14.122 14.122 0 01-.447 3.3zm-4.648.6v4.181c1.647-.179 3.07-1.816 3.854-4.182H9.3zm4.648-7.8c.279 1.078.429 2.185.447 3.3h2.997a8.343 8.343 0 00-.804-3.3h-2.64zm-9.102-.6H8.7V.606C7.053.787 5.63 2.424 4.846 4.79zm-.182 7.8H8.7v-3.3H4.204c.019 1.114.173 2.222.46 3.3zm-.46-3.9H8.7v-3.3H4.664a13.675 13.675 0 00-.46 3.3zm13.64-7.465l-.699-.38-.381-.7a.314.314 0 00-.528 0l-.381.7-.699.38a.301.301 0 000 .528l.699.381.381.7a.301.301 0 00.528 0l.381-.7.699-.38a.302.302 0 000-.529zm-15 15l-.699-.38-.381-.7a.314.314 0 00-.528 0l-.381.7-.699.38a.302.302 0 000 .528l.699.381.381.7a.301.301 0 00.528 0l.381-.7.699-.38a.302.302 0 000-.529z" fill="#55717C"/></svg>