<svg width="22" height="12" fill="none" xmlns="http://www.w3.org/2000/svg"><path d="M17.466 4.925a2.465 2.465 0 01-2.462-2.463A2.465 2.465 0 0117.466 0a2.465 2.465 0 012.463 2.462 2.465 2.465 0 01-2.463 2.463zm-12.932 0A2.465 2.465 0 012.07 2.462 2.465 2.465 0 014.534 0a2.465 2.465 0 012.462 2.462 2.465 2.465 0 01-2.462 2.463zm15.559.207a3.735 3.735 0 01-2.627 1.077 3.734 3.734 0 01-2.63-1.08 4.5 4.5 0 00-.948.921l.353.31a4.926 4.926 0 011.684 3.704v1.498h5.395a.642.642 0 00.643-.642V8.78c0-1.5-.738-2.83-1.87-3.647zm-18.186 0a4.493 4.493 0 00-1.87 3.647v2.141c0 .355.288.643.642.643h5.396v-1.5c0-1.416.614-2.767 1.684-3.704l.353-.309a4.502 4.502 0 00-.948-.921 3.735 3.735 0 01-2.63 1.08 3.735 3.735 0 01-2.627-1.077zm11.488 2.194a3.309 3.309 0 01-4.79 0 3.632 3.632 0 00-1.245 2.738v1.498h7.28v-1.498c0-1.091-.483-2.07-1.245-2.738zM11 7.066a2.036 2.036 0 01-2.034-2.034c0-1.122.912-2.034 2.034-2.034 1.122 0 2.034.912 2.034 2.034A2.036 2.036 0 0111 7.066z" fill="#55717C"/></svg>