<svg width="20" height="16" fill="none" xmlns="http://www.w3.org/2000/svg"><path d="M1.436 16h4.103c2.172 0 4.188-.763 5.676-2.147 2.473-2.302 1.61-4.448 2.546-5.564a10.396 10.396 0 012.181 6.37v.808c0 .294.239.533.534.533h1.066a.533.533 0 00.534-.533v-3.98c0-4.152 1.414-4.478.915-7.216-.291-1.603-1.01-2.987-2.138-4.115a.533.533 0 00-.755 0c-4.85 4.85-6.163 8.819-6.657 10.313-.279.842-.932 1.213-1.608 1.24a1.8 1.8 0 01-1.58-.805.533.533 0 00-.76-.134l-4.372 3.2a.533.533 0 00-.219.43v1.067c0 .294.239.533.534.533z" fill="#55717C"/></svg>