<svg width="18" height="12" fill="none" xmlns="http://www.w3.org/2000/svg"><path d="M6.76 5.09a2.99 2.99 0 01-.713-1.934A3.68 3.68 0 017.157.52h-4.52A2.64 2.64 0 000 3.156C0 4.222.867 5.09 1.934 5.09H6.76zm-5.354 5.45c0 .29.236.526.528.526h5.52V6.145H1.405v4.394zM15.363.52H9.738a2.64 2.64 0 00-2.636 2.636c0 .884.595 1.63 1.406 1.86v6.05h7.558a.527.527 0 00.528-.527V5.017A1.937 1.937 0 0018 3.157 2.64 2.64 0 0015.363.52zM10.97 8.887a.527.527 0 110-1.055.527.527 0 010 1.055zm0-5.133a.527.527 0 110-1.055.527.527 0 010 1.055zm1.58 2.566a.527.527 0 110-1.054.527.527 0 010 1.054zm1.582 2.567a.527.527 0 110-1.055.527.527 0 010 1.055zm0-5.133a.527.527 0 110-1.055.527.527 0 010 1.055z" fill="#55717C"/></svg>