<svg width="16" height="20" fill="none" xmlns="http://www.w3.org/2000/svg"><path d="M12.922 1.875H3.078a.39.39 0 01-.39-.39V.936c0-.517.42-.937.937-.937h8.75c.518 0 .938.42.938.938v.546a.39.39 0 01-.391.391zM12.375 20h-8.75a.937.937 0 01-.938-.938v-.546a.39.39 0 01.391-.391h9.844a.39.39 0 01.39.39v.547c0 .518-.42.938-.937.938zm.313-17.187H3.312a2.503 2.503 0 00-2.5 2.5v9.375c0 1.378 1.122 2.5 2.5 2.5h9.376c1.378 0 2.5-1.122 2.5-2.5V5.312c0-1.378-1.122-2.5-2.5-2.5zM5.644 10.84a.937.937 0 11-1.766.632A4.357 4.357 0 013.625 10c0-.505.086-1 .254-1.472a.938.938 0 011.766.632A2.485 2.485 0 005.5 10c0 .29.049.572.145.84zm3.827 3.28A4.357 4.357 0 018 14.376c-.505 0-1-.086-1.472-.254a.938.938 0 01.632-1.766c.268.096.55.145.84.145.29 0 .572-.049.84-.145a.938.938 0 01.632 1.766zm.567-7.042a.938.938 0 01-1.199.567A2.487 2.487 0 008 7.5c-.29 0-.572.049-.84.145a.937.937 0 11-.632-1.766A4.357 4.357 0 018 5.625c.505 0 1 .086 1.472.254a.937.937 0 01.567 1.199zm2.082 4.394a.938.938 0 01-1.766-.632c.096-.268.145-.55.145-.84 0-.29-.049-.572-.145-.84a.938.938 0 011.765-.632c.17.472.255.967.255 1.472s-.086 1-.255 1.472z" fill="#55717C"/></svg>