<svg width="22" height="14" fill="none" xmlns="http://www.w3.org/2000/svg"><path fill-rule="evenodd" clip-rule="evenodd" d="M21.927 10.161l-1.475-6.266C20.055 2.206 18.499.47 16.129.47H5.871c-1.734 0-3.78 1.118-4.323 3.425L.073 10.16a2.713 2.713 0 002.641 3.333c.744 0 1.443-.396 1.825-1.033l1.136-1.893c.194-.324.55-.525.927-.525h8.796c.377 0 .733.201.927.525l1.136 1.893a2.14 2.14 0 001.826 1.033c1.747 0 3.04-1.63 2.64-3.333zM8.239 5.901h-.736v.736a.644.644 0 01-1.29 0v-.736h-.735a.644.644 0 010-1.289h.736v-.736a.644.644 0 011.289 0v.736h.736a.644.644 0 010 1.29zm5.522 0a.645.645 0 110-1.29.645.645 0 010 1.29zm1.38 1.38a.645.645 0 11.001-1.289.645.645 0 010 1.29zm0-2.76a.645.645 0 11.001-1.29.645.645 0 010 1.29zm1.381 1.38a.645.645 0 110-1.29.645.645 0 010 1.29z" fill="#55717C"/></svg>