<svg width="16" height="24" fill="none" xmlns="http://www.w3.org/2000/svg"><path d="M11.724 3.3a.705.705 0 10-.664-.939h-.542v.47h.542a.705.705 0 00.664.469zm-6.242-.47h.368v-.47h-.368a.234.234 0 100 .469zM3.925 9.357a2.752 2.752 0 011.21-2.067 4.763 4.763 0 011.596-.694c-.609-1.035-.73-1.791-.736-1.828a.234.234 0 01.464-.071c.001.01.166 1.008 1.063 2.253.8 1.113 2.362 2.648 5.28 3.747V7.67a4.619 4.619 0 00-9.236 0v.653c0 .36.063.718.187 1.057a.937.937 0 01.172-.023zm6.412-1.816a.234.234 0 01.33-.031c.12.098.243.195.368.286a.235.235 0 01-.277.378 8.299 8.299 0 01-.39-.303.236.236 0 01-.075-.25.234.234 0 01.044-.08zm-2.25-3.228a.234.234 0 01.3.14c.004.013.469 1.27 1.666 2.492a.234.234 0 11-.335.329C8.446 5.975 7.965 4.668 7.946 4.613a.234.234 0 01.14-.3z" fill="#55717C"/><path d="M3.962 10.765h.188a.234.234 0 01.234.235v.338a3.524 3.524 0 007.049 0v-.713c-2.284-1.083-3.59-2.419-4.31-3.427a8.216 8.216 0 01-.124-.179 4.275 4.275 0 00-1.604.661 2.29 2.29 0 00-1.01 1.91.234.234 0 01-.235.235h-.188a.47.47 0 000 .94zm4.222-8.182c.727 0 1.446.155 2.107.458a2.115 2.115 0 10-4.213 0 5.057 5.057 0 012.106-.458z" fill="#55717C"/><path d="M9.178 18.84l.627-2.045v-1.944a3.986 3.986 0 01-3.61.093v1.851l.627 2.046a3.312 3.312 0 002.356-.001zm-.861 4.41h7.444v-3.716a2.51 2.51 0 00-2.508-2.508h-3.029L8.317 23.25zm2.871-2.908h2.393a.234.234 0 110 .469h-2.393a.234.234 0 110-.47zm-2.178-.954c-.66.185-1.36.185-2.02.001L8 22.685l1.01-3.297zm-3.235-2.362H2.747A2.51 2.51 0 00.24 19.534v3.716h7.444l-1.908-6.224z" fill="#55717C"/></svg>