<svg width="20" height="16" fill="none" xmlns="http://www.w3.org/2000/svg"><path d="M18.11 6.883l1.074-.089-.286-3.449-3.448-.285-.09 1.073 1.837.152-1.938 1.938a5.239 5.239 0 00-4.4-1.053 5.189 5.189 0 00-.751-1.245l1.938-1.938.152 1.836 1.073-.089-.285-3.449L9.536 0l-.088 1.073 1.836.152-1.938 1.938a5.24 5.24 0 00-7 .361 5.239 5.239 0 000 7.4 5.217 5.217 0 003.7 1.53c.37 0 .738-.038 1.1-.115a5.216 5.216 0 004.813 3.176c1.34 0 2.68-.51 3.7-1.53a5.24 5.24 0 00.362-7l1.938-1.938.151 1.836zm-9.125 3.28a4.138 4.138 0 01-1.124.8 4.153 4.153 0 012.284-4.417 4.153 4.153 0 01-1.16 3.617z" fill="#55717C"/></svg>