<svg width="14" height="20" fill="none" xmlns="http://www.w3.org/2000/svg"><path d="M12.542 4.48v9.201a.333.333 0 01-.477.301 4.086 4.086 0 00-1.755-.392c-.551 0-.617-.465-.364-.643a5.123 5.123 0 002.179-4.192v-1.88a1 1 0 00-.61-.92 10.387 10.387 0 01-3.765-2.7 1 1 0 00-1.5 0 10.387 10.387 0 01-3.765 2.7 1 1 0 00-.61.92c0 1.928-.07 2.562.292 3.585a5.15 5.15 0 001.884 2.484c.256.181.19.646-.36.646-.6 0-1.182.127-1.718.374a.333.333 0 01-.473-.302V4.479A4.48 4.48 0 015.98 0h2.082a4.48 4.48 0 014.48 4.48zm-1.084 2.395v1.88c0 2.458-2 4.458-4.458 4.458s-4.458-2-4.458-4.458v-1.88c0-.134.08-.255.203-.307A11.052 11.052 0 006.75 3.696a.333.333 0 01.5 0 11.052 11.052 0 004.005 2.872.334.334 0 01.203.307zM7.333 6a.333.333 0 00-.666 0v.333a.333.333 0 00.666 0V6zm3.122 8.26c-.148-.004-.26 0-.406-.027a.343.343 0 00-.154.005 11.984 11.984 0 00-7.133 5.393.243.243 0 00.209.369h.95a.333.333 0 00.284-.16 13.146 13.146 0 016.293-5.338c.125-.051.092-.237-.043-.241zm-1.716-.684a5.124 5.124 0 01-3.529-.018.33.33 0 00-.383.114 1.437 1.437 0 01-.112.138.333.333 0 00.04.49l1.076.832a.334.334 0 00.384.017c.899-.576 1.79-.986 2.62-1.278.22-.078.09-.362-.096-.295zm-3.629 1.84l-1.4-1.082a.336.336 0 00-.225-.07A3.437 3.437 0 00.25 17.698v1.969c0 .184.15.333.333.333h1.009a.335.335 0 00.295-.178 12.632 12.632 0 013.228-3.882.333.333 0 00-.005-.523zm6.732-.684a12.478 12.478 0 00-6.696 4.886.243.243 0 00.2.382h8.07c.185 0 .334-.15.334-.333v-1.97a3.435 3.435 0 00-1.636-2.93.333.333 0 00-.272-.035z" fill="#55717C"/></svg>