<svg width="10" height="10" fill="none" xmlns="http://www.w3.org/2000/svg"><path d="M9.623.378A1.234 1.234 0 008.718 0H1.283a1.23 1.23 0 00-.905.378A1.234 1.234 0 000 1.283v7.434c0 .352.126.654.378.905.251.252.553.378.905.378h7.435c.35 0 .653-.126.904-.378.252-.251.378-.553.378-.905V1.283c0-.352-.126-.654-.377-.905zM3.59 3.603c.392-.38.864-.57 1.416-.57.555 0 1.03.19 1.422.57.393.38.59.84.59 1.377 0 .539-.197.998-.59 1.377-.393.38-.867.57-1.422.57-.552 0-1.024-.19-1.416-.57A1.845 1.845 0 013 4.98c0-.538.197-.997.59-1.377zm5.276 4.848a.38.38 0 01-.117.283.388.388 0 01-.28.114H1.51a.384.384 0 01-.283-.114.384.384 0 01-.114-.283V4.23h.918c-.086.274-.13.559-.13.854 0 .833.304 1.544.912 2.132a3.042 3.042 0 002.194.882 3.13 3.13 0 002.695-1.5c.278-.463.417-.968.417-1.514 0-.295-.044-.58-.13-.853h.878V8.45zm0-5.814a.433.433 0 01-.13.319.433.433 0 01-.319.13H7.285a.434.434 0 01-.319-.13.434.434 0 01-.13-.32V1.564c0-.122.043-.227.13-.316a.429.429 0 01.32-.134h1.132c.126 0 .232.045.319.134.087.089.13.194.13.316v1.074z" fill="#fff"/></svg>