<svg width="14" height="10" fill="none" xmlns="http://www.w3.org/2000/svg"><path d="M11.84 4.215l-.356-.118c-.871-.284-1.396-.457-1.396-1.161 0-.571.424-.985 1.009-.985.448 0 .782.193 1.081.629.028.04.082.055.124.031l.88-.466a.096.096 0 00.049-.061.113.113 0 00-.008-.08c-.472-.87-1.15-1.292-2.077-1.292-1.41 0-2.322.886-2.322 2.257 0 1.402.882 1.97 2.508 2.525.942.327 1.359.5 1.359 1.196 0 .783-.68 1.345-1.607 1.312-.973-.034-1.266-.569-1.637-1.445a417.048 417.048 0 01-1.345-3.234C7.387 1.608 5.968.625 4.21.625 1.89.625 0 2.588 0 5.001c0 2.411 1.89 4.374 4.21 4.374a4.137 4.137 0 003.257-1.6.106.106 0 00.014-.105l-.53-1.273a.1.1 0 00-.087-.06.097.097 0 00-.09.053c-.501.995-1.484 1.613-2.564 1.613-1.593 0-2.889-1.347-2.889-3.003 0-1.656 1.296-3.003 2.89-3.003 1.16 0 2.222.715 2.645 1.782L8.169 6.89l.151.35c.594 1.435 1.466 2.079 2.832 2.084 1.624 0 2.848-1.118 2.848-2.6 0-1.487-.792-2.045-2.16-2.509z" fill="#fff"/></svg>