<svg width="42" height="58" fill="none" xmlns="http://www.w3.org/2000/svg"><mask id="a" fill="#fff"><path d="M22.708 52.636c.947 1.357 2.83 1.701 4.073.609A26.945 26.945 0 002.69 6.805C1.08 7.193.278 8.93.842 10.485c.564 1.557 2.281 2.338 3.902 2.002A20.95 20.95 0 0123.32 48.293c-1.208 1.131-1.558 2.986-.611 4.343z"/></mask><path d="M22.708 52.636c.947 1.357 2.83 1.701 4.073.609A26.945 26.945 0 002.69 6.805C1.08 7.193.278 8.93.842 10.485c.564 1.557 2.281 2.338 3.902 2.002A20.95 20.95 0 0123.32 48.293c-1.208 1.131-1.558 2.986-.611 4.343z" stroke="#2092C2" stroke-width="12" mask="url(#a)"/></svg>