<svg width="113" height="29" fill="none" xmlns="http://www.w3.org/2000/svg"><path d="M49.977 6.668L45.08 20.542H40.7L35.803 6.668h4.123l2.92 9.898h.172l2.92-9.898h4.038zM55.474 4.3c-.43.422-.945.592-1.46.592s-1.117-.17-1.46-.593c-.344-.423-.602-.846-.602-1.353 0-.508.172-1.015.602-1.354.43-.423.945-.592 1.46-.592s1.117.17 1.46.592c.43.339.602.846.602 1.354 0 .507-.258.93-.602 1.353zm-3.521 16.158V6.668h3.865v13.874h-3.865v-.084zm12.197.254a5.08 5.08 0 01-2.234-.508c-.687-.338-1.288-.762-1.803-1.354a5.818 5.818 0 01-1.203-2.284 11.35 11.35 0 01-.43-3.045c0-1.185.172-2.2.43-3.13.344-.931.687-1.693 1.203-2.285.515-.592 1.116-1.015 1.803-1.353a10 10 0 012.234-.254c.6 0 1.03.084 1.546.254.515.169.859.338 1.202.592.344.254.602.507.773.761.172.254.344.592.516.846h.085V2.015h3.866v18.443h-3.866v-2.2h-.171a7.418 7.418 0 01-.516.846c-.171.254-.515.508-.773.762-.343.253-.687.422-1.116.592a4.562 4.562 0 01-1.546.254zm1.288-3.046c.945 0 1.632-.338 2.147-1.1.516-.761.773-1.692.773-2.96 0-1.27-.257-2.2-.773-2.962-.515-.761-1.202-1.1-2.147-1.1-.945 0-1.718.339-2.147 1.1-.516.762-.773 1.692-.773 2.961 0 1.27.257 2.2.773 2.961.43.762 1.202 1.1 2.147 1.1zm9.964 2.792V6.668h3.693v2.453h.172c.258-.846.773-1.438 1.46-1.945.687-.508 1.46-.677 2.405-.677.945 0 1.804.254 2.491.677.687.423 1.117 1.1 1.374 1.945h.172c.258-.76.86-1.438 1.546-1.945.773-.508 1.632-.677 2.663-.677 1.374 0 2.405.423 3.178 1.269.773.846 1.203 2.03 1.203 3.468v9.306h-3.865v-8.629c0-.761-.172-1.353-.602-1.692-.43-.338-.945-.592-1.546-.592-.687 0-1.288.254-1.632.677-.43.423-.601 1.015-.601 1.776v8.46h-3.78V11.83c0-.677-.171-1.185-.6-1.608-.43-.423-.946-.592-1.547-.592-.687 0-1.202.254-1.632.677-.43.507-.687 1.1-.687 1.861v8.29h-3.865zm33.499-.592c-1.031.592-2.234.93-3.694.93-1.374 0-2.663-.338-3.693-.93-1.031-.593-1.89-1.439-2.405-2.538-.516-1.1-.86-2.285-.86-3.723 0-2.115.602-3.891 1.89-5.16 1.289-1.27 2.921-1.946 5.068-1.946 2.148 0 3.78.677 5.068 1.946 1.288 1.269 1.89 3.045 1.89 5.16 0 1.438-.258 2.623-.859 3.723-.602 1.1-1.375 1.945-2.405 2.538zm-3.694-2.03c.945 0 1.632-.424 2.148-1.185.515-.762.773-1.777.773-3.046s-.258-2.284-.773-3.045c-.516-.762-1.203-1.185-2.148-1.185-.945 0-1.718.423-2.233 1.185-.515.761-.773 1.776-.773 3.045 0 1.27.258 2.284.773 3.046.601.761 1.288 1.184 2.233 1.184z" fill="#fff"/><path d="M26.946 12.614a10.465 10.465 0 01-10.489 10.488c-2.905 0-5.528-1.205-7.441-3.047-1.843-1.914-3.047-4.536-3.047-7.441A10.465 10.465 0 0116.457 2.125a10.465 10.465 0 0110.489 10.489z" fill="#2092C2" stroke="#fff" stroke-width="3.2" stroke-miterlimit="10"/><path d="M9.087 19.984L2 26.858" stroke="#fff" stroke-width="3.2" stroke-miterlimit="10"/><path d="M20.567 12.614l-6.165-4.536v9.071l6.165-4.535z" fill="#fff"/></svg>