<svg width="16" height="16" fill="none" xmlns="http://www.w3.org/2000/svg"><path d="M14.73 2.267a4.302 4.302 0 00-3.2-1.393c-.923 0-1.769.292-2.514.868A5.14 5.14 0 008 2.803a5.14 5.14 0 00-1.016-1.061A4.025 4.025 0 004.47.874a4.303 4.303 0 00-3.2 1.393C.45 3.155 0 4.367 0 5.683 0 7.035.504 8.274 1.587 9.58c.968 1.168 2.36 2.354 3.972 3.728.55.47 1.175 1.001 1.822 1.568a.938.938 0 001.237 0c.648-.567 1.272-1.099 1.823-1.568 1.612-1.374 3.004-2.56 3.972-3.728C15.496 8.274 16 7.036 16 5.682c0-1.314-.45-2.527-1.27-3.415z" fill="#55717C"/></svg>