<svg width="18" height="18" fill="none" xmlns="http://www.w3.org/2000/svg"><path d="M9 13.887a4.887 4.887 0 100-9.774 4.887 4.887 0 000 9.774zM9 2.87a.527.527 0 00.527-.527V.527a.527.527 0 00-1.054 0v1.816c0 .291.236.527.527.527zm8.473 5.603h-1.816a.527.527 0 000 1.054h1.816a.527.527 0 000-1.054zM9 15.13a.527.527 0 00-.527.527v1.816a.527.527 0 101.054 0v-1.816A.527.527 0 009 15.13zM2.87 9a.527.527 0 00-.527-.527H.527a.527.527 0 000 1.054h1.816A.527.527 0 002.87 9zm10.837-4.18c.135 0 .27-.051.373-.154l1.284-1.284a.527.527 0 00-.746-.746L13.334 3.92a.527.527 0 00.373.9zm.373 8.515a.527.527 0 10-.746.745l1.284 1.284a.526.526 0 00.746 0 .527.527 0 000-.746l-1.284-1.284zm-10.16-.001l-1.284 1.284a.527.527 0 00.746.746l1.284-1.284a.527.527 0 00-.746-.746zm0-8.668a.526.526 0 00.746 0 .527.527 0 000-.746L3.382 2.636a.527.527 0 10-.746.746L3.92 4.666zm7.432-1.326a.526.526 0 00.69-.285l.697-1.677a.527.527 0 00-.974-.404l-.697 1.676a.527.527 0 00.284.69zm5.674 8.424l-1.676-.696a.527.527 0 10-.405.974l1.677.696a.526.526 0 00.689-.284.527.527 0 00-.285-.69zM6.648 14.66a.527.527 0 00-.69.285l-.696 1.677a.527.527 0 00.974.404l.696-1.676a.527.527 0 00-.284-.69zM.974 6.235l1.676.697a.526.526 0 00.69-.285.527.527 0 00-.285-.689l-1.677-.697a.527.527 0 00-.404.974zm13.692.425a.528.528 0 00.689.287l1.678-.693a.527.527 0 00-.403-.975l-1.678.693a.527.527 0 00-.286.689zm-2.638 8.292a.527.527 0 00-.975.402l.693 1.679a.528.528 0 10.975-.403l-.693-1.678zM3.334 11.34a.527.527 0 00-.689-.287l-1.678.693a.527.527 0 00.403.975l1.678-.693a.527.527 0 00.286-.689zm2.638-8.292a.528.528 0 00.975-.403L6.254.967a.527.527 0 00-.975.403l.693 1.678z" fill="#55717C"/></svg>