<svg width="16" height="18" fill="none" xmlns="http://www.w3.org/2000/svg"><path d="M15.85 10.488l-.621-1.272a.49.49 0 010-.432l.622-1.272a1.448 1.448 0 00-.625-1.923l-1.251-.663a.489.489 0 01-.254-.35l-.245-1.394a1.448 1.448 0 00-1.635-1.188l-1.402.198a.488.488 0 01-.41-.134L9.01 1.074a1.447 1.447 0 00-2.022 0l-1.017.984a.489.489 0 01-.411.134l-1.402-.198a1.448 1.448 0 00-1.635 1.188l-.245 1.394a.489.489 0 01-.254.35l-1.25.664A1.447 1.447 0 00.15 7.512l.62 1.272a.489.489 0 010 .432l-.62 1.272a1.448 1.448 0 00.624 1.923l1.251.663a.489.489 0 01.254.35l.245 1.394a1.448 1.448 0 001.635 1.188l1.402-.198a.489.489 0 01.41.134l1.018.984a1.448 1.448 0 002.022 0l1.017-.984a.488.488 0 01.411-.134l1.402.198a1.447 1.447 0 001.635-1.188l.245-1.394a.489.489 0 01.254-.35l1.25-.663c.697-.37.972-1.214.626-1.923zm-9.613.435a.48.48 0 01-.911.215L4.313 9.113v1.81a.48.48 0 11-.961 0V7.076a.48.48 0 01.91-.215l1.013 2.025v-1.81a.48.48 0 01.962 0v3.847zM8.64 8.52a.48.48 0 010 .962H7.52v.962h1.443a.48.48 0 010 .961H7.038a.48.48 0 01-.48-.48v-3.85a.48.48 0 01.48-.48h1.924a.48.48 0 010 .961H7.519v.962h1.122zm4.007 2.404a.481.481 0 01-.91.215l-.532-1.063-.532 1.063a.48.48 0 01-.91-.215V7.076a.48.48 0 01.96 0v1.81l.052-.101a.48.48 0 01.86 0l.05.101v-1.81a.48.48 0 01.962 0v3.847z" fill="#55717C"/></svg>