<svg width="16" height="16" fill="none" xmlns="http://www.w3.org/2000/svg"><path d="M15.429 4H12.57V.571A.571.571 0 0012 0H.571A.571.571 0 000 .571v13.143A2.286 2.286 0 002.286 16h11.428A2.286 2.286 0 0016 13.714V4.571A.571.571 0 0015.429 4zM4.57 2.857H8A.571.571 0 118 4H4.571a.571.571 0 110-1.143zm5.143 10.857H2.857a.571.571 0 010-1.143h6.857a.571.571 0 110 1.143zm0-2.285H2.857a.571.571 0 010-1.143h6.857a.571.571 0 110 1.143zm0-2.286H2.857a.571.571 0 110-1.143h6.857a.571.571 0 110 1.143zm0-2.286H2.857a.571.571 0 110-1.143h6.857a.571.571 0 110 1.143zm5.143 6.857a1.143 1.143 0 01-2.286 0V5.143h2.286v8.571z" fill="#55717C"/></svg>