<svg width="13" height="18" fill="none" xmlns="http://www.w3.org/2000/svg"><path fill-rule="evenodd" clip-rule="evenodd" d="M12.602 10.466a8.721 8.721 0 01-5.141 2.406l3.296 3.208c.217.21.339.497.339.795 0 .298-.122.584-.34.795a1.155 1.155 0 01-.816.33 1.183 1.183 0 01-.818-.33l-2.65-2.579-2.652 2.58c-.22.2-.51.308-.812.303a1.176 1.176 0 01-.8-.33 1.107 1.107 0 01-.338-.778 1.103 1.103 0 01.316-.786l3.295-3.208a8.721 8.721 0 01-5.14-2.406A1.123 1.123 0 010 9.67a1.096 1.096 0 01.34-.795 1.163 1.163 0 01.82-.33 1.191 1.191 0 01.82.329 6.375 6.375 0 002.063 1.338 6.529 6.529 0 004.868 0 6.375 6.375 0 002.064-1.338c.105-.115.233-.208.376-.273a1.188 1.188 0 011.313.226 1.092 1.092 0 01.223 1.275 1.128 1.128 0 01-.285.364zm-6.13-1.467a4.741 4.741 0 01-2.58-.752A4.533 4.533 0 012.176 6.23a4.375 4.375 0 01-.27-2.6 4.459 4.459 0 011.267-2.308A4.684 4.684 0 015.548.087 4.771 4.771 0 018.23.341c.848.34 1.574.917 2.084 1.657s.782 1.61.782 2.501a4.43 4.43 0 01-1.353 3.178 4.708 4.708 0 01-3.271 1.322zm0-6.75a2.37 2.37 0 00-1.29.375c-.383.247-.68.598-.857 1.009a2.18 2.18 0 00-.135 1.3c.089.437.309.838.633 1.153.324.316.737.53 1.187.618.45.087.917.043 1.341-.127.424-.17.787-.458 1.042-.828a2.202 2.202 0 00-.285-2.84 2.354 2.354 0 00-1.636-.66z" fill="#D96B2A"/></svg>