<svg width="9" height="12" fill="none" xmlns="http://www.w3.org/2000/svg"><path fill-rule="evenodd" clip-rule="evenodd" d="M7.956 6.811A5.438 5.438 0 014.71 8.377l2.08 2.087a.733.733 0 01-.794 1.194.727.727 0 01-.237-.158L4.086 9.82 2.412 11.5a.731.731 0 01-1.032-1.036l2.08-2.087A5.438 5.438 0 01.216 6.81.732.732 0 011.25 5.775a4.015 4.015 0 005.678 0 .731.731 0 111.028 1.036zm-3.87-.955A2.928 2.928 0 114.069 0a2.928 2.928 0 01.017 5.856zm0-4.393a1.464 1.464 0 10-.009 2.928 1.464 1.464 0 00.009-2.928z" fill="#fff"/></svg>