<svg width="34" height="34" fill="none" xmlns="http://www.w3.org/2000/svg"><mask id="a" maskUnits="userSpaceOnUse" x="0" y="0" width="34" height="34"><path d="M17 34c9.389 0 17-7.611 17-17S26.389 0 17 0 0 7.611 0 17s7.611 17 17 17z" fill="#A6B5BB"/></mask><g mask="url(#a)"><path d="M17 34c9.389 0 17-7.611 17-17S26.389 0 17 0 0 7.611 0 17s7.611 17 17 17z" fill="#F5F7F8"/><path d="M29 31.344c-.152-5.334-6.04-5.773-8.155-6.672-2.116-.899-1.24-3.596.323-5.514 1.887-1.658 1.468-3.436 1.2-3.655-.266-.22-.38-.9-.094-1.718.285-.82.152-5.114-4.25-5.694-4.401-.579-5.735 1.738-6.593 2.917-.857 1.179-.076 3.156-.438 4.435-.343 1.298-.21 2.497.724 3.016.934.52 1.163 2.358 1.467 3.017.324.639 1.525 3.036-3.772 4.754-5.298 1.718-5.374 5.054-5.374 5.054l-.038.56V35h25v-3.656z" fill="#D6E1E7"/></g></svg>