<svg width="18" height="16" fill="none" xmlns="http://www.w3.org/2000/svg"><path d="M12.037 8.54a4.365 4.365 0 00-3.69-2.017c-1.501 0-2.88.754-3.69 2.018l-1.952 3.044a2.755 2.755 0 00-.432 1.688c.04.598.269 1.156.659 1.613.39.456.905.767 1.49.901a2.755 2.755 0 001.735-.165l.037-.016a5.453 5.453 0 014.342.016 2.76 2.76 0 001.735.165 2.756 2.756 0 001.49-.901c.39-.456.618-1.014.66-1.613a2.756 2.756 0 00-.432-1.688l-1.952-3.044zM3.23 8.537c.581-.224 1.022-.691 1.243-1.318.21-.596.192-1.27-.049-1.896A2.75 2.75 0 003.19 3.885c-.583-.317-1.224-.37-1.804-.146C.22 4.188-.316 5.63.192 6.953.6 8.006 1.546 8.67 2.504 8.67c.244 0 .49-.043.727-.134zm3.788-2.386c1.458 0 2.644-1.351 2.644-3.012S8.476.126 7.018.126c-1.458 0-2.644 1.352-2.644 3.013 0 1.661 1.186 3.012 2.644 3.012zm4.566.74c.224.075.453.11.68.11 1.064 0 2.1-.774 2.496-1.963A2.955 2.955 0 0014.717 3c-.266-.66-.76-1.138-1.391-1.347-.631-.21-1.314-.123-1.922.246a2.955 2.955 0 00-1.254 1.607c-.48 1.444.163 2.963 1.434 3.385zm5.568-.351c-1.006-.743-2.51-.422-3.353.717-.842 1.14-.71 2.671.294 3.414a2.06 2.06 0 001.241.401c.772 0 1.575-.394 2.111-1.118.842-1.14.71-2.67-.293-3.414z" fill="#55717C"/></svg>