<svg width="16" height="21" fill="none" xmlns="http://www.w3.org/2000/svg"><path d="M12.28 5.453a.615.615 0 00-1.143.318 1.363 1.363 0 01-2.723 0V.615A.615.615 0 007.364.18c-.07.07-1.71 1.72-3.372 4.213-.98 1.47-1.762 2.928-2.325 4.334C.955 10.508.594 12.213.594 13.795.594 17.768 3.826 21 7.799 21s7.205-3.232 7.205-7.205c0-2.543-.917-5.35-2.725-8.342zm-.376 8.182a.615.615 0 11-1.23 0v-1.15L7.61 15.547a.616.616 0 01-.87 0l-1.429-1.429-.963.963a.615.615 0 11-.87-.87l1.398-1.398c.24-.24.63-.24.87 0l1.43 1.429 2.628-2.629H8.653a.615.615 0 110-1.23h2.636c.34 0 .615.275.615.615v2.636z" fill="#55717C"/></svg>