<svg width="15" height="22" fill="none" xmlns="http://www.w3.org/2000/svg"><path d="M2.578 12.29c0-.842-.537-1.582-1.337-1.84-.032-.011-.066-.013-.099-.022-.327.464-.667.954-1.034 1.504a.645.645 0 00-.108.357c0 .72.09 1.351.264 1.897a1.933 1.933 0 002.314-1.897z" fill="#55717C"/><path d="M11.602 3.975V.645A.644.644 0 0010.957 0H7.09a.644.644 0 00-.645.645v1.962c0 1.458-.24 1.76-1.393 3a40.7 40.7 0 00-3.123 3.736 3.206 3.206 0 011.938 2.946c0 1.518-1.1 3.007-2.892 3.187.009.01.015.025.025.035.68.748 1.606 1.037 2.676.962l-.001.005c1.586-.151 2.77-1.253 2.77-1.61a.644.644 0 111.29 0c0 .575-.378 1.192-1.064 1.736-.81.64-2.055 1.184-3.28 1.184-.018 0-.034-.005-.051-.005a6.556 6.556 0 00.595 3.86c.11.22.333.357.577.357h5.98c-.105-.417-1.469-3.544-1.469-8.63v-1.08a.644.644 0 111.29 0v1.08c0 4.646 1.448 8.281 1.538 8.63h1.684a.644.644 0 00.645-.645V7.133a3.228 3.228 0 00-2.578-3.158z" fill="#55717C"/></svg>