<svg width="16" height="8" fill="none" xmlns="http://www.w3.org/2000/svg"><path d="M12.889 3.556a2.21 2.21 0 00-.463.048A4.007 4.007 0 008.444 0C8.2 0 8 .2 8 .444v7.112C8 7.8 8.2 8 8.444 8h4.445a2.224 2.224 0 002.222-2.222 2.225 2.225 0 00-2.222-2.222zM6.667.889a.444.444 0 00-.445.444v6.222a.445.445 0 00.89 0V1.333c0-.245-.2-.444-.445-.444zM4.889 2.667a.445.445 0 00-.445.444v4.444a.445.445 0 00.89 0V3.111c0-.245-.2-.445-.445-.445zm-1.778 0a.444.444 0 00-.444.444v4.444a.445.445 0 00.889 0V3.111c0-.245-.2-.445-.445-.445zM1.333 4c-.245 0-.444.2-.444.444v2.667a.445.445 0 00.889 0V4.444c0-.245-.2-.444-.445-.444z" fill="#fff"/></svg>