<svg width="16" height="18" fill="none" xmlns="http://www.w3.org/2000/svg"><path d="M15.597 13.457l-2.923-4.593a4.578 4.578 0 00-1.628-.74 4.598 4.598 0 00-3.55.658l-1.591 1.06a3.54 3.54 0 01-3.391.298L.403 13.457c-1.08 1.695.136 3.91 2.146 3.91h10.902c2.009 0 3.226-2.214 2.146-3.91zm-10.65 1.875a1.528 1.528 0 01-1.526-1.526c0-.842.684-1.527 1.526-1.527s1.527.685 1.527 1.527c0 .842-.685 1.526-1.527 1.526zM8 14.315a.509.509 0 110-1.018.509.509 0 010 1.018zm2.035 1.017a.509.509 0 110-1.017.509.509 0 010 1.017zm0-2.035A1.528 1.528 0 018.51 11.77a1.528 1.528 0 013.053.001c0 .841-.685 1.526-1.527 1.526zm2.035 1.018a.509.509 0 110-1.018.509.509 0 010 1.018z" fill="#55717C"/><path d="M10.035 11.262a.51.51 0 100 1.018.51.51 0 000-1.018zM3.069 9.267a2.52 2.52 0 002.271-.272l1.59-1.06a5.575 5.575 0 014.707-.7l-1.093-1.718V3.053a1.528 1.528 0 000-3.053H5.456c-.842 0-1.527.685-1.527 1.526 0 .842.685 1.527 1.527 1.527v2.464l-2.387 3.75zm1.878 4.03a.51.51 0 100 1.018.51.51 0 000-1.018z" fill="#55717C"/></svg>