<svg width="16" height="16" fill="none" xmlns="http://www.w3.org/2000/svg"><path d="M8 0a8 8 0 108 8 8.01 8.01 0 00-8-8zm.286 2.306l2.78-1.111c.316.142.622.307.914.492l.008.005c.287.182.563.384.823.603l.022.02c.117.1.23.202.341.309l.043.04c.115.113.227.23.336.35l.026.03c.096.107.187.218.276.33l.063.08c.097.125.19.252.278.383l-.554 2.357-2.728.909-2.628-2.102V2.306zM2.08 3.456l.064-.08a6.52 6.52 0 01.272-.326l.03-.034c.107-.12.219-.237.334-.35l.04-.038c.11-.106.223-.208.339-.307l.026-.022c.259-.218.53-.419.816-.6l.01-.007c.291-.185.595-.349.909-.492l2.793 1.106V5L5.087 7.102l-2.728-.908-.554-2.357a7.79 7.79 0 01.276-.381zm-.321 8.636a7.445 7.445 0 01-.225-.365l-.017-.03a6.979 6.979 0 01-.202-.377l-.002-.004a7.438 7.438 0 01-.351-.826v-.003a7.359 7.359 0 01-.131-.407l-.014-.051a7.345 7.345 0 01-.1-.391L.71 9.6a7.422 7.422 0 01-.141-.904l1.628-1.953 2.709.903.786 3.144L4.4 12.51l-2.64-.418zm8.016 3.16c-.134.032-.27.061-.407.087l-.058.01c-.117.02-.234.039-.353.053l-.094.013c-.11.012-.22.022-.33.03l-.105.008a7 7 0 01-.822.003c-.016 0-.031-.002-.047-.003a8.868 8.868 0 01-.347-.027l-.013-.003a7.577 7.577 0 01-.752-.12l-1.577-2.47 1.271-1.695h3.716l1.292 1.707-1.374 2.406zM15.292 9.6l-.008.038c-.03.132-.063.262-.1.391l-.014.05c-.04.138-.083.274-.13.408v.003a7.503 7.503 0 01-.352.826l-.002.005a7.415 7.415 0 01-.202.376l-.017.03a6.66 6.66 0 01-.225.365l-2.63.415-1.302-1.718.786-3.143 2.71-.903 1.627 1.953a7.413 7.413 0 01-.14.904z" fill="#55717C"/></svg>