<svg width="16" height="18" fill="none" xmlns="http://www.w3.org/2000/svg"><path d="M1.145 13.746c0 1.163.946 2.11 2.109 2.11V18h1.582v-3.2H5.89V18h1.582v-3.2h1.054V18h1.582v-3.2h1.055V18h1.582v-2.145c1.163 0 2.11-.946 2.11-2.109 0-.445-.144-.874-.404-1.23a7.814 7.814 0 001.458-4.57C15.91 3.582 12.362 0 8 0S.09 3.583.09 7.945c0 1.658.502 3.228 1.458 4.57-.26.357-.403.786-.403 1.231zm8.526-.235L8.616 11.93l.877-.585 1.055 1.582-.877.585zm3.79-6.899l.18.495a2.634 2.634 0 01-1.576 3.38A2.634 2.634 0 018.686 8.91l-.18-.495 4.955-1.803zm-7.132 6.9l-.877-.586 1.055-1.582.877.585-1.055 1.582zM2.36 7.106l.18-.495 4.956 1.803-.181.495a2.634 2.634 0 01-3.38 1.576A2.634 2.634 0 012.36 7.107z" fill="#55717C"/></svg>