<svg width="14" height="10" fill="none" xmlns="http://www.w3.org/2000/svg"><path d="M13.156 1.183c-.453.2-.94.337-1.45.398.521-.312.92-.808 1.11-1.396-.49.289-1.03.499-1.605.613A2.526 2.526 0 006.908 3.1 7.17 7.17 0 011.701.462a2.524 2.524 0 00.782 3.371 2.526 2.526 0 01-1.144-.317v.031a2.53 2.53 0 002.026 2.477 2.558 2.558 0 01-.666.088c-.163 0-.32-.016-.475-.047A2.527 2.527 0 004.583 7.82 5.067 5.067 0 011.447 8.9c-.204 0-.405-.013-.602-.035A7.139 7.139 0 004.715 10c4.647 0 7.186-3.848 7.186-7.185l-.008-.327a5.043 5.043 0 001.263-1.305z" fill="#fff"/></svg>