<svg width="13" height="7" fill="none" xmlns="http://www.w3.org/2000/svg"><path fill-rule="evenodd" clip-rule="evenodd" d="M11.188 4.45c.432.402.887.778 1.273 1.22.171.195.333.398.457.625.175.323.016.68-.288.698h-1.894c-.489.038-.878-.149-1.206-.467-.262-.254-.505-.524-.757-.787a1.768 1.768 0 00-.34-.288c-.26-.16-.484-.111-.632.146-.15.26-.184.55-.199.84-.02.425-.155.536-.603.556-.957.043-1.866-.095-2.71-.555-.744-.405-1.321-.977-1.823-1.624C1.488 3.553.738 2.168.066.744-.086.423.025.25.397.244c.618-.011 1.236-.01 1.854 0 .251.003.418.14.514.366.335.782.744 1.526 1.257 2.216.137.183.276.367.475.496.22.143.387.096.49-.137.066-.148.094-.307.109-.465a6.588 6.588 0 00-.03-1.629c-.053-.338-.253-.557-.608-.62C4.277.437 4.304.372 4.39.274 4.544.105 4.688 0 4.973 0h2.14c.338.063.412.207.459.53l.001 2.262c-.003.125.066.496.302.578.19.06.314-.085.428-.2.512-.517.878-1.128 1.205-1.762.145-.278.27-.567.39-.856.09-.215.23-.32.484-.315l2.06.001c.061 0 .123.001.182.01.347.057.443.2.335.522-.169.506-.497.927-.819 1.351-.343.452-.71.89-1.051 1.344-.313.416-.288.625.1.986z" fill="#fff"/></svg>