<svg width="21" height="15" fill="none" xmlns="http://www.w3.org/2000/svg"><path d="M20.148 2.254A2.577 2.577 0 0018.335.44C16.725 0 10.285 0 10.285 0S3.848 0 2.238.424a2.63 2.63 0 00-1.813 1.83C0 3.864 0 7.202 0 7.202s0 3.355.424 4.948a2.578 2.578 0 001.813 1.813c1.626.44 8.049.44 8.049.44s6.439 0 8.049-.423a2.578 2.578 0 001.813-1.813c.424-1.61.424-4.948.424-4.948s.017-3.356-.424-4.965z" fill="#2092C2"/><path d="M8.235 9.42a.5.5 0 00.75.434l3.853-2.219a.5.5 0 000-.866l-3.853-2.22a.5.5 0 00-.75.434V9.42z" fill="#fff"/></svg>